<?xml version="1.0" encoding="utf-8"?>
<!-- Generator: Adobe Illustrator 26.0.1, SVG Export Plug-In . SVG Version: 6.00 Build 0)  -->
<svg version="1.1" id="Layer_1" xmlns="http://www.w3.org/2000/svg" xmlns:xlink="http://www.w3.org/1999/xlink" x="0px" y="0px"
	 viewBox="0 0 1000 1000" style="enable-background:new 0 0 1000 1000;" xml:space="preserve">
<style type="text/css">
	.st0{fill:#D32027;}
	.st1{fill:none;}
	.st2{fill:#FFFFFF;}
</style>
<g>
	<g>
		<path class="st0" d="M219.18,119.26c0,0,0.68,473.28,0.68,476.42c7.31,148.73,129.97,265.49,279.06,265.49
			c149.42,0,271.74-116.76,279.03-265.49c0.18-1.79,0.35-128.31,0.49-250.51c0.13-114.88,0.22-225.91,0.22-225.91H219.18z
			 M756.41,379.53c0,44.37,0,90.57-0.04,128.76c0,4.53,0,8.95-0.02,13.24c-0.02,12.86-0.02,24.55-0.04,34.63
			c-0.02,9.26-0.04,17.15-0.09,23.33c0,1.13,0,2.19-0.02,3.2c0,1.52-0.02,2.89-0.02,4.15c0,1.94-0.02,3.54-0.04,4.79
			c0,0.35,0,0.69-0.02,0.99c0,0.44,0,0.84-0.02,1.15c0,0.42,0,0.71-0.02,0.86c-6.58,137.26-119.52,244.63-257.14,244.63
			S248.37,731.91,241.76,594.64c0-1.19-0.04-13.35-0.09-32.66c0-3.43-0.02-7.09-0.02-10.94c0-5.83-0.02-12.13-0.04-18.83
			c0-2.89,0-5.83-0.02-8.86c-0.02-9.08-0.04-18.76-0.04-28.88c0-4.49-0.02-9.08-0.02-13.74c0-4.66-0.02-9.39-0.02-14.19
			c0-4.8-0.02-9.63-0.02-14.54c0-9.81,0-19.78-0.02-29.83c0-6.98-0.02-14.01-0.02-21.04c-0.02-9.92-0.02-19.82-0.02-29.61V322.9h515
			V379.53z"/>
	</g>
	<g>
		<path d="M241.41,322.9v18.41c0,9.88,0,20,0.02,30.23v29.61c0,7.03,0.02,14.05,0.02,21.04c0.02,10.05,0.02,20.02,0.02,29.83
			c0.02,4.88,0.02,9.74,0.02,14.54c0.02,4.8,0.02,9.52,0.02,14.19c0,4.66,0.02,9.26,0.02,13.74c0.02,10.12,0.04,19.8,0.04,28.88
			c0.02,3.03,0.02,5.97,0.02,8.86c0.02,6.7,0.04,12.99,0.04,18.83c0,3.85,0.02,7.51,0.02,10.94c0.04,19.31,0.09,31.47,0.09,32.66
			c6.61,137.26,119.54,244.63,257.16,244.63s250.55-107.37,257.14-244.63c0.02-0.15,0.02-0.44,0.02-0.86
			c0.02-0.31,0.02-0.71,0.02-1.15c0.02-0.31,0.02-0.64,0.02-0.99c0.02-1.26,0.04-2.85,0.04-4.79c0-1.26,0.02-2.63,0.02-4.15
			c0.02-1.02,0.02-2.08,0.02-3.2c0.04-6.19,0.07-14.08,0.09-23.33c0.02-10.08,0.02-21.77,0.04-34.63c0.02-4.29,0.02-8.71,0.02-13.24
			c0.04-38.18,0.04-84.39,0.04-128.76V322.9H241.41z M732.79,379.18c0,17.92,0,38.03-0.02,58.51c0.02,18.52,0,37.36-0.02,55.17
			c0,11.53-0.02,22.65-0.04,32.97c-0.02,20.97-0.04,38.65-0.13,50c0,0.88,0,1.72-0.02,2.52c0,1.59,0,3.03-0.02,4.31
			c0,1.02,0,1.92-0.02,2.74c0,0.8,0,1.48-0.02,2.06c0,1.15-0.02,1.81-0.04,1.97c-5.9,123.7-108.07,222.4-233.52,222.4
			c-125.11,0-227.62-98.71-233.52-222.4c-0.02-0.13-0.04-0.95-0.07-2.43c-0.04-2.67-0.07-7.42-0.11-13.85v-2.28
			c-0.02-5.72-0.04-12.6-0.07-20.33c0-3.87-0.02-7.98-0.02-12.26c-0.02-4.26-0.02-8.75-0.02-13.37c0-5.86-0.02-11.95-0.02-18.25
			c-0.02-11-0.02-22.58-0.02-34.36c-0.02-34.6-0.02-71.04-0.02-100.41c0-15.29,0-24.68,0-24.68h467.74
			C732.79,347.21,732.79,359.74,732.79,379.18z"/>
	</g>
	<g>
		<path class="st0" d="M732.79,379.18c0,17.92,0,38.03-0.02,58.51c0.02,18.52,0,37.36-0.02,55.17c0,11.53-0.02,22.65-0.04,32.97
			c-0.02,20.97-0.04,38.65-0.13,50c0,0.88,0,1.72-0.02,2.52c0,1.59,0,3.03-0.02,4.31c0,1.02,0,1.92-0.02,2.74
			c0,0.8,0,1.48-0.02,2.06c0,1.15-0.02,1.81-0.04,1.97c-5.9,123.7-108.07,222.4-233.52,222.4c-125.11,0-227.62-98.71-233.52-222.4
			c-0.02-0.13-0.04-0.95-0.07-2.43c-0.04-2.67-0.07-7.42-0.11-13.85v-2.28c-0.02-5.72-0.04-12.6-0.07-20.33
			c0-3.87-0.02-7.98-0.02-12.26c-0.02-4.26-0.02-8.75-0.02-13.37c0-5.86-0.02-11.95-0.02-18.25c-0.02-11-0.02-22.58-0.02-34.36
			c-0.02-34.6-0.02-71.04-0.02-100.41c0-15.29,0-24.68,0-24.68h467.74C732.79,347.21,732.79,359.74,732.79,379.18z"/>
	</g>
	<g>
		<g>
			<path d="M358.53,662.75l-0.35-162.63V376.41h146.3c45.87,0,87.92,17.03,120.24,45.17c11.11,9.73,21.54,20.85,29.88,33.36
				c5.21,7.3,9.73,14.94,13.9,22.93c12.51,24.67,19.46,52.47,19.46,82.01c0,20.15-3.48,39.61-9.38,57.68
				c-5.21,16.33-12.85,31.28-22.24,45.17c-9.04,13.21-19.81,25.02-31.62,35.45c-32.32,28.15-74.37,45.17-120.24,45.17
				c-1.38,0-2.77,0-3.82-0.35v0.35H372.08l32.66-29.88l17.03-15.29H501v-0.35c1.04,0.35,2.43,0.35,3.47,0.35
				c35.45,0,67.76-13.55,92.44-35.45c13.9-12.51,25.37-28.15,33.01-45.17c8.34-17.38,12.85-37.18,12.85-57.68
				c0-21.55-4.86-41.7-13.55-59.77c-8.34-17.72-20.51-33.01-34.75-45.17c-24.32-20.85-55.6-33.36-90.01-33.36H403.35v195.99h98.35
				c0,0,4.51-0.35,6.6-0.35c32.32,0,58.73-26.06,58.73-58.38c0-32.67-26.41-58.73-58.73-58.73h-66.72v-45.17h74.36
				c32.32,2.43,60.81,19.46,78.19,45.17c11.47,16.68,18.07,36.84,18.07,58.73c0,21.54-6.6,42.05-18.07,58.73
				c-18.77,27.1-49.69,44.83-84.79,45.17H358.53z"/>
		</g>
		<g>
			<path d="M544.09,526.19H441.58v-18.42h66.37C522.55,508.46,535.41,515.41,544.09,526.19z"/>
		</g>
		<g>
			<path d="M544.44,590.82c-9.38,11.82-23.64,19.11-39.97,19.11h-62.89v-19.11H544.44z"/>
		</g>
		<g>
			<path d="M555.56,563.37c-0.34,6.95-2.43,13.55-5.9,19.11H441.58v-19.11H555.56z"/>
		</g>
		<g>
			<path d="M555.56,555.03H441.58v-19.11h108.76C553.48,541.82,555.22,548.08,555.56,555.03z"/>
		</g>
		<g>
			<path d="M544.44,590.82c-9.38,11.82-23.64,19.11-39.97,19.11c-15.98,0-30.23-7.3-39.61-19.11H544.44z"/>
		</g>
		<g>
			<path d="M555.56,563.37c-0.34,6.95-2.43,13.55-5.9,19.11h-90c-3.48-5.56-5.57-12.16-5.91-19.11H555.56z"/>
		</g>
		<g>
			<path d="M544.09,526.19h-78.88c8.69-10.77,21.19-17.72,35.79-18.42h6.95C522.55,508.46,535.41,515.41,544.09,526.19z"/>
		</g>
		<g>
			<path d="M555.56,555.03H453.74c0.35-6.95,2.09-13.21,5.22-19.11h91.39C553.48,541.82,555.22,548.08,555.56,555.03z"/>
		</g>
	</g>
	<g>
		<line class="st1" x1="795.68" y1="345.48" x2="756.42" y2="344.78"/>
	</g>
	<g>
		<path d="M241.43,371.53h-0.02v-30.23C241.41,351.18,241.41,361.3,241.43,371.53z"/>
	</g>
	<g>
		<g>
			<path d="M254.27,152.33v142.82h20.51v-10.77h70.54v10.77h21.19V152.33H254.27z M345.32,264.57h-70.54v-36.84h70.54V264.57z
				 M345.32,207.93h-70.54v-35.79h70.54V207.93z"/>
		</g>
		<g>
			<path d="M505.87,194.72h51.08v-20.16h-62.9v-27.45c3.13-0.7,4.52-1.74,4.52-3.13l-25.37-1.39v31.97H411v20.16h50.39
				c-12.85,25.37-33.71,49.34-56.99,61.85c4.51,4.17,10.77,11.82,14.24,16.68c9.38-5.91,18.07-13.21,26.06-21.55v17.72h28.5v28.15
				h20.85v-28.15h27.45v-19.11c8.34,9.04,17.38,16.33,27.11,22.24c3.48-5.56,10.43-13.55,15.3-17.72
				C540.27,242.33,519.08,219.39,505.87,194.72z M473.2,249.28h-26.06c9.73-10.77,18.77-22.94,26.06-36.14V249.28z M494.05,249.28
				v-36.49c7.65,13.55,16.34,25.72,26.42,36.49H494.05z"/>
		</g>
		<g>
			<path d="M659.81,235.38v62.2h18.77v-6.25h34.4v5.21h19.11v-61.16H659.81z M712.98,273.6h-34.4v-20.5h34.4V273.6z M728.27,209.32
				v-33.36h-35.45c0.7-4.17,1.39-7.99,1.73-11.81h42.4v-17.03H653.9v17.03h21.55c-0.7,3.82-1.04,7.64-1.74,11.81h-16.68v16.68h13.9
				c-0.7,5.91-1.74,11.47-2.77,16.68h-20.51v17.03h95.22v-17.03H728.27z M709.51,209.32h-22.24c1.04-5.21,1.74-10.77,2.78-16.68
				h19.46V209.32z M595.87,147.46v14.94h46.91v-14.94H595.87z M594.83,217.31v14.94h47.95v-14.94H594.83z M594.83,194.37v14.59
				h47.95v-14.59H594.83z M594.48,240.59v56.64h16.68v-6.26h32.66v-50.39H594.48z M627.14,275.34h-15.98v-19.11h15.98V275.34z
				 M587.18,170.4v15.64h61.51V170.4H587.18z"/>
		</g>
	</g>
</g>
</svg>
