<?xml version="1.0" encoding="utf-8"?>
<!-- Generator: Adobe Illustrator 26.0.1, SVG Export Plug-In . SVG Version: 6.00 Build 0)  -->
<svg version="1.1" id="Layer_1" xmlns="http://www.w3.org/2000/svg" xmlns:xlink="http://www.w3.org/1999/xlink" x="0px" y="0px"
	 viewBox="0 0 1000 1000" style="enable-background:new 0 0 1000 1000;" xml:space="preserve">
<style type="text/css">
	.st0{fill:#D32027;}
	.st1{fill:none;}
	.st2{fill:#FFFFFF;}
</style>
<g>
	<g>
		<path d="M127.71,347.03v16.2h31.93v-16.2H127.71z M127.71,372.19v16.67h31.93v-16.67H127.71z M205.72,381.94h11.79v-16.35
			C214.21,371.56,210.12,377.07,205.72,381.94z M226.94,365.43v16.51h11.96C234.34,377.07,230.41,371.56,226.94,365.43z
			 M127.71,372.19v16.67h31.93v-16.67H127.71z M127.71,347.03v16.2h31.93v-16.2H127.71z M226.94,365.43v16.51h11.96
			C234.34,377.07,230.41,371.56,226.94,365.43z M205.72,381.94h11.79v-16.35C214.21,371.56,210.12,377.07,205.72,381.94z
			 M127.71,347.03v16.2h31.93v-16.2H127.71z M127.71,372.19v16.67h31.93v-16.67H127.71z M205.72,381.94h11.79v-16.35
			C214.21,371.56,210.12,377.07,205.72,381.94z M226.94,365.43v16.51h11.96C234.34,377.07,230.41,371.56,226.94,365.43z
			 M127.71,372.19v16.67h31.93v-16.67H127.71z M127.71,347.03v16.2h31.93v-16.2H127.71z M226.94,365.43v16.51h11.96
			C234.34,377.07,230.41,371.56,226.94,365.43z M205.72,381.94h11.79v-16.35C214.21,371.56,210.12,377.07,205.72,381.94z
			 M127.71,347.03v16.2h31.93v-16.2H127.71z M127.71,372.19v16.67h31.93v-16.67H127.71z M205.72,381.94h11.79v-16.35
			C214.21,371.56,210.12,377.07,205.72,381.94z M226.94,365.43v16.51h11.96C234.34,377.07,230.41,371.56,226.94,365.43z
			 M279.95,385.09v8.65h7.23v-8.65H279.95z M127.71,372.19v16.67h31.93v-16.67H127.71z M127.71,347.03v16.2h31.93v-16.2H127.71z
			 M226.94,365.43v16.51h11.96C234.34,377.07,230.41,371.56,226.94,365.43z M205.72,381.94h11.79v-16.35
			C214.21,371.56,210.12,377.07,205.72,381.94z M279.95,385.09v8.65h7.23v-8.65H279.95z M127.71,347.03v16.2h31.93v-16.2H127.71z
			 M127.71,372.19v16.67h31.93v-16.67H127.71z M205.72,381.94h11.79v-16.35C214.21,371.56,210.12,377.07,205.72,381.94z
			 M226.94,365.43v16.51h11.96C234.34,377.07,230.41,371.56,226.94,365.43z M279.95,385.09v8.65h7.23v-8.65H279.95z M315.65,356.31
			c-0.48,2.67-0.79,5.19-1.26,7.55h10.06v-7.55H315.65z M127.71,372.19v16.67h31.93v-16.67H127.71z M127.71,347.03v16.2h31.93v-16.2
			H127.71z M226.94,365.43v16.51h11.96C234.34,377.07,230.41,371.56,226.94,365.43z M205.72,381.94h11.79v-16.35
			C214.21,371.56,210.12,377.07,205.72,381.94z M279.95,385.09v8.65h7.23v-8.65H279.95z M315.65,356.31
			c-0.48,2.67-0.79,5.19-1.26,7.55h10.06v-7.55H315.65z M127.71,347.03v16.2h31.93v-16.2H127.71z M127.71,372.19v16.67h31.93v-16.67
			H127.71z M205.72,381.94h11.79v-16.35C214.21,371.56,210.12,377.07,205.72,381.94z M226.94,365.43v16.51h11.96
			C234.34,377.07,230.41,371.56,226.94,365.43z M279.95,385.09v8.65h7.23v-8.65H279.95z M315.65,356.31
			c-0.48,2.67-0.79,5.19-1.26,7.55h10.06v-7.55H315.65z M310.45,383.67v9.28h15.57v-9.28H310.45z M127.71,372.19v16.67h31.93v-16.67
			H127.71z M127.71,347.03v16.2h31.93v-16.2H127.71z M226.94,365.43v16.51h11.96C234.34,377.07,230.41,371.56,226.94,365.43z
			 M205.72,381.94h11.79v-16.35C214.21,371.56,210.12,377.07,205.72,381.94z M279.95,385.09v8.65h7.23v-8.65H279.95z M310.45,383.67
			v9.28h15.57v-9.28H310.45z M315.65,356.31c-0.48,2.67-0.79,5.19-1.26,7.55h10.06v-7.55H315.65z M127.71,347.03v16.2h31.93v-16.2
			H127.71z M127.71,372.19v16.67h31.93v-16.67H127.71z M205.72,381.94h11.79v-16.35C214.21,371.56,210.12,377.07,205.72,381.94z
			 M226.94,365.43v16.51h11.96C234.34,377.07,230.41,371.56,226.94,365.43z M279.95,385.09v8.65h7.23v-8.65H279.95z M315.65,356.31
			c-0.48,2.67-0.79,5.19-1.26,7.55h10.06v-7.55H315.65z M310.45,383.67v9.28h15.57v-9.28H310.45z M127.71,372.19v16.67h31.93v-16.67
			H127.71z M127.71,347.03v16.2h31.93v-16.2H127.71z M226.94,365.43v16.51h11.96C234.34,377.07,230.41,371.56,226.94,365.43z
			 M205.72,381.94h11.79v-16.35C214.21,371.56,210.12,377.07,205.72,381.94z M279.95,385.09v8.65h7.23v-8.65H279.95z M310.45,383.67
			v9.28h15.57v-9.28H310.45z M315.65,356.31c-0.48,2.67-0.79,5.19-1.26,7.55h10.06v-7.55H315.65z M127.71,347.03v16.2h31.93v-16.2
			H127.71z M127.71,372.19v16.67h31.93v-16.67H127.71z M205.72,381.94h11.79v-16.35C214.21,371.56,210.12,377.07,205.72,381.94z
			 M226.94,365.43v16.51h11.96C234.34,377.07,230.41,371.56,226.94,365.43z M279.95,385.09v8.65h7.23v-8.65H279.95z M315.65,356.31
			c-0.48,2.67-0.79,5.19-1.26,7.55h10.06v-7.55H315.65z M310.45,383.67v9.28h15.57v-9.28H310.45z M127.71,388.86h31.93v-16.67
			h-31.93V388.86z M127.71,347.03v16.2h31.93v-16.2H127.71z M226.94,365.43v16.51h11.96C234.34,377.07,230.41,371.56,226.94,365.43z
			 M217.51,381.94v-16.35c-3.3,5.97-7.39,11.48-11.79,16.35H217.51z M279.95,385.09v8.65h7.23v-8.65H279.95z M310.45,383.67v9.28
			h15.57v-9.28H310.45z M315.65,356.31c-0.48,2.67-0.79,5.19-1.26,7.55h10.06v-7.55H315.65z M102.55,323.1
			c0,0,0.31,214.19,0.31,215.61c3.31,67.31,58.82,120.15,126.29,120.15c67.62,0,122.98-52.84,126.28-120.15
			c0.08-0.81,0.16-58.07,0.22-113.37c0.06-51.99,0.1-102.24,0.1-102.24H102.55z M299.29,335.71h37.59v7.7h-19.19
			c-0.16,1.73-0.47,3.46-0.79,5.35h16.05v15.1h6.6v7.7h-43.09v-7.7h9.28c0.47-2.36,0.94-4.88,1.25-7.55h-6.28v-7.55h7.54
			c0.32-1.89,0.48-3.62,0.79-5.35h-9.75V335.71z M310.45,400.97v2.83h-8.49v-28.15h32.71v27.68h-8.65v-2.36H310.45z M273.03,335.86
			h21.23v6.77h-21.23V335.86z M269.09,346.24h27.84v7.08h-27.84V346.24z M294.26,367.47v6.77h-21.71v-6.77H294.26z M272.55,363.7
			v-6.61h21.71v6.61H272.55z M294.73,378.01v22.8h-14.78v2.83h-7.55v-25.63H294.73z M189.36,357.25v-9.12h28.15v-14.47l11.48,0.63
			c0,0.63-0.63,1.1-2.05,1.42v12.42h28.47v9.12h-23.12c5.98,11.17,15.57,21.55,26.27,27.21c-2.2,1.88-5.35,5.5-6.92,8.02
			c-4.41-2.67-8.5-5.98-12.27-10.07v8.65h-12.43v12.74h-9.43v-12.74h-12.9v-8.02c-3.61,3.78-7.54,7.08-11.79,9.75
			c-1.57-2.2-4.4-5.66-6.45-7.55c10.54-5.66,19.98-16.51,25.79-27.99H189.36z M118.43,338.06h50.8v64.64h-9.59v-4.87h-31.93v4.87
			h-9.28V338.06z M345.68,440.89c0,20.08,0,40.99-0.02,58.27c0,2.05,0,4.05-0.01,5.99c-0.01,5.82-0.01,11.11-0.02,15.67
			c-0.01,4.19-0.02,7.76-0.04,10.56c0,0.51,0,0.99-0.01,1.45c0,0.69-0.01,1.31-0.01,1.88c0,0.88-0.01,1.6-0.02,2.17
			c0,0.16,0,0.31-0.01,0.45c0,0.2,0,0.38-0.01,0.52c0,0.19,0,0.32-0.01,0.39c-2.98,62.12-54.09,110.71-116.37,110.71
			s-113.39-48.59-116.38-110.71c0-0.54-0.02-6.04-0.04-14.78c0-1.55-0.01-3.21-0.01-4.95c0-2.64-0.01-5.49-0.02-8.52
			c0-1.31,0-2.64-0.01-4.01c0-2.06,0-4.18-0.01-6.36c0-2.18,0-4.42-0.01-6.71c0-2.03-0.01-4.11-0.01-6.22c0-2.11,0-4.25-0.01-6.42
			c0-2.17,0-4.37-0.01-6.58c0-4.44,0-8.95-0.01-13.5c0-3.16-0.01-6.34-0.01-9.52c-0.01-4.49-0.01-8.97-0.01-13.4v-22.01h233.07
			V440.89z M326.02,383.67h-15.57v9.28h15.57V383.67z M324.45,356.31h-8.8c-0.48,2.67-0.79,5.19-1.26,7.55h10.06V356.31z
			 M287.18,385.09h-7.23v8.65h7.23V385.09z M226.94,365.43v16.51h11.96C234.34,377.07,230.41,371.56,226.94,365.43z M217.51,365.59
			c-3.3,5.97-7.39,11.48-11.79,16.35h11.79V365.59z M159.64,372.19h-31.93v16.67h31.93V372.19z M159.64,347.03h-31.93v16.2h31.93
			V347.03z M315.65,356.31c-0.48,2.67-0.79,5.19-1.26,7.55h10.06v-7.55H315.65z M310.45,383.67v9.28h15.57v-9.28H310.45z
			 M279.95,385.09v8.65h7.23v-8.65H279.95z M205.72,381.94h11.79v-16.35C214.21,371.56,210.12,377.07,205.72,381.94z M226.94,365.43
			v16.51h11.96C234.34,377.07,230.41,371.56,226.94,365.43z M127.71,347.03v16.2h31.93v-16.2H127.71z M127.71,372.19v16.67h31.93
			v-16.67H127.71z M310.45,383.67v9.28h15.57v-9.28H310.45z M315.65,356.31c-0.48,2.67-0.79,5.19-1.26,7.55h10.06v-7.55H315.65z
			 M279.95,385.09v8.65h7.23v-8.65H279.95z M226.94,365.43v16.51h11.96C234.34,377.07,230.41,371.56,226.94,365.43z M205.72,381.94
			h11.79v-16.35C214.21,371.56,210.12,377.07,205.72,381.94z M127.71,372.19v16.67h31.93v-16.67H127.71z M127.71,347.03v16.2h31.93
			v-16.2H127.71z M315.65,356.31c-0.48,2.67-0.79,5.19-1.26,7.55h10.06v-7.55H315.65z M310.45,383.67v9.28h15.57v-9.28H310.45z
			 M279.95,385.09v8.65h7.23v-8.65H279.95z M205.72,381.94h11.79v-16.35C214.21,371.56,210.12,377.07,205.72,381.94z M226.94,365.43
			v16.51h11.96C234.34,377.07,230.41,371.56,226.94,365.43z M127.71,347.03v16.2h31.93v-16.2H127.71z M127.71,372.19v16.67h31.93
			v-16.67H127.71z M310.45,383.67v9.28h15.57v-9.28H310.45z M315.65,356.31c-0.48,2.67-0.79,5.19-1.26,7.55h10.06v-7.55H315.65z
			 M279.95,385.09v8.65h7.23v-8.65H279.95z M226.94,365.43v16.51h11.96C234.34,377.07,230.41,371.56,226.94,365.43z M205.72,381.94
			h11.79v-16.35C214.21,371.56,210.12,377.07,205.72,381.94z M127.71,372.19v16.67h31.93v-16.67H127.71z M127.71,347.03v16.2h31.93
			v-16.2H127.71z M315.65,356.31c-0.48,2.67-0.79,5.19-1.26,7.55h10.06v-7.55H315.65z M310.45,383.67v9.28h15.57v-9.28H310.45z
			 M279.95,385.09v8.65h7.23v-8.65H279.95z M205.72,381.94h11.79v-16.35C214.21,371.56,210.12,377.07,205.72,381.94z M226.94,365.43
			v16.51h11.96C234.34,377.07,230.41,371.56,226.94,365.43z M127.71,347.03v16.2h31.93v-16.2H127.71z M127.71,372.19v16.67h31.93
			v-16.67H127.71z M310.45,383.67v9.28h15.57v-9.28H310.45z M315.65,356.31c-0.48,2.67-0.79,5.19-1.26,7.55h10.06v-7.55H315.65z
			 M279.95,385.09v8.65h7.23v-8.65H279.95z M226.94,365.43v16.51h11.96C234.34,377.07,230.41,371.56,226.94,365.43z M205.72,381.94
			h11.79v-16.35C214.21,371.56,210.12,377.07,205.72,381.94z M127.71,372.19v16.67h31.93v-16.67H127.71z M127.71,347.03v16.2h31.93
			v-16.2H127.71z M279.95,385.09v8.65h7.23v-8.65H279.95z M205.72,381.94h11.79v-16.35C214.21,371.56,210.12,377.07,205.72,381.94z
			 M226.94,365.43v16.51h11.96C234.34,377.07,230.41,371.56,226.94,365.43z M127.71,347.03v16.2h31.93v-16.2H127.71z M127.71,372.19
			v16.67h31.93v-16.67H127.71z M279.95,385.09v8.65h7.23v-8.65H279.95z M226.94,365.43v16.51h11.96
			C234.34,377.07,230.41,371.56,226.94,365.43z M205.72,381.94h11.79v-16.35C214.21,371.56,210.12,377.07,205.72,381.94z
			 M127.71,372.19v16.67h31.93v-16.67H127.71z M127.71,347.03v16.2h31.93v-16.2H127.71z M205.72,381.94h11.79v-16.35
			C214.21,371.56,210.12,377.07,205.72,381.94z M226.94,365.43v16.51h11.96C234.34,377.07,230.41,371.56,226.94,365.43z
			 M127.71,347.03v16.2h31.93v-16.2H127.71z M127.71,372.19v16.67h31.93v-16.67H127.71z M226.94,365.43v16.51h11.96
			C234.34,377.07,230.41,371.56,226.94,365.43z M205.72,381.94h11.79v-16.35C214.21,371.56,210.12,377.07,205.72,381.94z
			 M127.71,372.19v16.67h31.93v-16.67H127.71z M127.71,347.03v16.2h31.93v-16.2H127.71z M205.72,381.94h11.79v-16.35
			C214.21,371.56,210.12,377.07,205.72,381.94z M226.94,365.43v16.51h11.96C234.34,377.07,230.41,371.56,226.94,365.43z
			 M127.71,347.03v16.2h31.93v-16.2H127.71z M127.71,372.19v16.67h31.93v-16.67H127.71z M226.94,365.43v16.51h11.96
			C234.34,377.07,230.41,371.56,226.94,365.43z M205.72,381.94h11.79v-16.35C214.21,371.56,210.12,377.07,205.72,381.94z
			 M127.71,372.19v16.67h31.93v-16.67H127.71z M127.71,347.03v16.2h31.93v-16.2H127.71z M127.71,347.03v16.2h31.93v-16.2H127.71z
			 M127.71,372.19v16.67h31.93v-16.67H127.71z M127.71,372.19v16.67h31.93v-16.67H127.71z M127.71,347.03v16.2h31.93v-16.2H127.71z"
			/>
	</g>
	<g>
		<path d="M334.99,426.26H123.31c0,0,0,4.25,0,11.17c0,13.29,0,29.78,0.01,45.44c0,5.33,0,10.57,0.01,15.55
			c0,2.85,0.01,5.61,0.01,8.26c0,2.09,0,4.12,0.01,6.05c0,1.94,0.01,3.8,0.01,5.55c0.01,3.5,0.02,6.61,0.03,9.2v1.03
			c0.02,2.91,0.03,5.06,0.05,6.27c0.01,0.67,0.02,1.04,0.03,1.1c2.67,55.98,49.06,100.65,105.68,100.65
			c56.77,0,103.01-44.67,105.68-100.65c0.01-0.07,0.02-0.37,0.02-0.89c0.01-0.26,0.01-0.57,0.01-0.93c0.01-0.37,0.01-0.78,0.01-1.24
			c0.01-0.58,0.01-1.23,0.01-1.95c0.01-0.36,0.01-0.74,0.01-1.14c0.04-5.14,0.05-13.14,0.06-22.63c0.01-4.67,0.02-9.7,0.02-14.92
			c0.01-8.06,0.02-16.59,0.01-24.97c0.01-9.27,0.01-18.37,0.01-26.48C334.99,431.93,334.99,426.26,334.99,426.26z M310.45,548.62
			c-2.35,7.39-5.81,14.15-10.06,20.44c-4.09,5.98-8.96,11.33-14.31,16.05c-14.63,12.73-33.66,20.44-54.42,20.44
			c-0.62,0-59.91,0-59.91,0l14.78-13.52l7.71-6.92h35.85v-0.16c0.47,0.16,1.1,0.16,1.57,0.16c16.05,0,30.67-6.14,41.84-16.05
			c6.29-5.66,11.48-12.73,14.94-20.44c3.77-7.86,5.82-16.83,5.82-26.11c0-9.75-2.2-18.87-6.14-27.05
			c-3.77-8.02-9.28-14.94-15.72-20.44c-11.01-9.44-25.17-15.1-40.74-15.1H185.9v88.7h44.51c0,0,2.04-0.16,2.99-0.16
			c14.62,0,26.57-11.79,26.57-26.42c0-14.78-11.95-26.58-26.57-26.58h-30.2v-20.44h33.65c14.63,1.1,27.53,8.81,35.39,20.44
			c5.19,7.55,8.18,16.67,8.18,26.58c0,9.75-2.99,19.03-8.18,26.58c-8.49,12.27-22.49,20.29-38.37,20.44h-68.26l-0.15-73.6v-55.98
			h66.2c20.76,0,39.79,7.7,54.42,20.44c5.03,4.41,9.75,9.44,13.52,15.1c2.36,3.3,4.41,6.76,6.29,10.38
			c5.67,11.17,8.81,23.75,8.81,37.11C314.7,531.64,313.13,540.44,310.45,548.62z M203.2,532.74v-8.65h51.58
			c-0.15,3.14-1.1,6.13-2.67,8.65H203.2z M249.75,536.51c-4.24,5.35-10.7,8.65-18.09,8.65H203.2v-8.65H249.75z M203.2,520.31v-8.65
			h49.22c1.42,2.68,2.21,5.51,2.36,8.65H203.2z M203.2,507.26v-8.34h30.04c6.6,0.32,12.42,3.46,16.35,8.34H203.2z"/>
	</g>
	<g>
		<path d="M464.73,338.92c5.79,2.98,10.27,7.23,13.42,12.75c3.16,5.51,4.73,11.91,4.73,19.2c0,7.28-1.58,13.65-4.73,19.09
			c-3.16,5.45-7.63,9.66-13.42,12.64c-5.79,2.98-12.5,4.47-20.13,4.47h-25.39v-72.63h25.39
			C452.23,334.45,458.94,335.94,464.73,338.92z M461.77,388.45c4.16-4.16,6.24-10.02,6.24-17.58c0-7.56-2.08-13.48-6.24-17.74
			c-4.16-4.27-10.06-6.4-17.69-6.4h-10.3v47.97h10.3C451.71,394.7,457.61,392.61,461.77,388.45z"/>
		<path d="M515.72,351.2c3.02-1.73,6.47-2.6,10.35-2.6v15.3h-3.85c-4.58,0-8.03,1.08-10.35,3.23c-2.33,2.15-3.49,5.9-3.49,11.24
			v28.72h-14.57v-57.65h14.57v8.95C510.26,355.33,512.7,352.94,515.72,351.2z"/>
		<path d="M589.03,382.62h-42.14c0.35,4.16,1.8,7.42,4.37,9.78c2.56,2.36,5.72,3.54,9.47,3.54c5.41,0,9.26-2.32,11.55-6.97h15.71
			c-1.66,5.55-4.86,10.11-9.57,13.68c-4.72,3.57-10.51,5.36-17.38,5.36c-5.55,0-10.53-1.23-14.93-3.69
			c-4.4-2.46-7.84-5.95-10.3-10.46c-2.46-4.51-3.69-9.71-3.69-15.61c0-5.97,1.21-11.2,3.64-15.71c2.43-4.51,5.83-7.98,10.2-10.41
			c4.37-2.43,9.4-3.64,15.09-3.64c5.48,0,10.39,1.18,14.72,3.54c4.33,2.36,7.7,5.71,10.09,10.04c2.39,4.34,3.59,9.31,3.59,14.93
			C589.44,379.09,589.3,380.96,589.03,382.62z M574.36,372.84c-0.07-3.75-1.42-6.75-4.06-9c-2.64-2.25-5.86-3.38-9.68-3.38
			c-3.61,0-6.64,1.09-9.1,3.28c-2.46,2.18-3.97,5.22-4.53,9.1H574.36z"/>
		<path d="M599.8,362.54c2.32-4.51,5.48-7.98,9.47-10.41c3.99-2.43,8.44-3.64,13.37-3.64c4.3,0,8.06,0.87,11.29,2.6
			c3.23,1.73,5.81,3.92,7.75,6.56v-8.22h14.67v57.65h-14.67v-8.43c-1.87,2.71-4.46,4.94-7.75,6.71c-3.3,1.77-7.09,2.65-11.39,2.65
			c-4.86,0-9.28-1.25-13.27-3.75c-3.99-2.5-7.15-6.02-9.47-10.56c-2.33-4.54-3.49-9.76-3.49-15.66
			C596.31,372.22,597.47,367.05,599.8,362.54z M639.6,369.15c-1.39-2.53-3.26-4.47-5.62-5.83c-2.36-1.35-4.89-2.03-7.6-2.03
			c-2.71,0-5.2,0.66-7.49,1.98c-2.29,1.32-4.15,3.24-5.57,5.78c-1.42,2.53-2.13,5.53-2.13,9c0,3.47,0.71,6.5,2.13,9.1
			s3.29,4.6,5.62,5.98c2.32,1.39,4.8,2.08,7.44,2.08c2.71,0,5.24-0.68,7.6-2.03c2.36-1.35,4.23-3.29,5.62-5.83
			c1.39-2.53,2.08-5.57,2.08-9.1S640.98,371.68,639.6,369.15z"/>
		<path d="M759.31,355.1c4.33,4.34,6.5,10.39,6.5,18.16v33.82h-14.57v-31.84c0-4.51-1.14-7.96-3.43-10.35s-5.41-3.59-9.37-3.59
			s-7.09,1.2-9.42,3.59c-2.33,2.39-3.49,5.84-3.49,10.35v31.84h-14.57v-31.84c0-4.51-1.14-7.96-3.43-10.35s-5.41-3.59-9.37-3.59
			c-4.02,0-7.2,1.2-9.52,3.59c-2.33,2.39-3.49,5.84-3.49,10.35v31.84H670.6v-57.65h14.57v6.97c1.87-2.43,4.28-4.33,7.23-5.72
			c2.95-1.39,6.19-2.08,9.73-2.08c4.51,0,8.53,0.96,12.07,2.86c3.54,1.91,6.28,4.63,8.22,8.17c1.87-3.33,4.59-6,8.17-8.01
			c3.57-2.01,7.44-3.02,11.6-3.02C749.27,348.6,754.98,350.77,759.31,355.1z"/>
		<path d="M832.82,382.62h-42.14c0.35,4.16,1.8,7.42,4.37,9.78c2.57,2.36,5.72,3.54,9.47,3.54c5.41,0,9.26-2.32,11.55-6.97h15.71
			c-1.67,5.55-4.86,10.11-9.57,13.68c-4.72,3.57-10.51,5.36-17.38,5.36c-5.55,0-10.53-1.23-14.93-3.69
			c-4.41-2.46-7.84-5.95-10.3-10.46c-2.46-4.51-3.69-9.71-3.69-15.61c0-5.97,1.21-11.2,3.64-15.71c2.43-4.51,5.83-7.98,10.2-10.41
			c4.37-2.43,9.4-3.64,15.09-3.64c5.48,0,10.39,1.18,14.72,3.54c4.33,2.36,7.7,5.71,10.09,10.04c2.39,4.34,3.59,9.31,3.59,14.93
			C833.24,379.09,833.1,380.96,832.82,382.62z M818.15,372.84c-0.07-3.75-1.42-6.75-4.06-9c-2.64-2.25-5.86-3.38-9.68-3.38
			c-3.61,0-6.64,1.09-9.1,3.28c-2.46,2.18-3.97,5.22-4.53,9.1H818.15z"/>
		<path d="M865.76,351.2c3.02-1.73,6.47-2.6,10.35-2.6v15.3h-3.85c-4.58,0-8.03,1.08-10.35,3.23c-2.33,2.15-3.49,5.9-3.49,11.24
			v28.72h-14.57v-57.65h14.57v8.95C860.29,355.33,862.74,352.94,865.76,351.2z"/>
		<path d="M481.33,519.1h-14.57l-32.99-49.84v49.84h-14.57v-72.73h14.57l32.99,49.95v-49.95h14.57V519.1z"/>
		<path d="M496.68,452.14c-1.7-1.63-2.55-3.66-2.55-6.09c0-2.43,0.85-4.46,2.55-6.09c1.7-1.63,3.83-2.45,6.4-2.45
			c2.57,0,4.7,0.82,6.4,2.45c1.7,1.63,2.55,3.66,2.55,6.09c0,2.43-0.85,4.46-2.55,6.09c-1.7,1.63-3.83,2.45-6.4,2.45
			C500.51,454.58,498.38,453.77,496.68,452.14z M510.26,461.45v57.65h-14.57v-57.65H510.26z"/>
		<path d="M568.74,463.48c3.4,1.91,6.05,4.72,7.96,8.43c1.91,3.71,2.86,8.17,2.86,13.37v33.82h-14.57v-31.84
			c0-4.58-1.14-8.1-3.43-10.56c-2.29-2.46-5.41-3.69-9.37-3.69c-4.02,0-7.2,1.23-9.52,3.69c-2.32,2.46-3.49,5.98-3.49,10.56v31.84
			h-14.57v-77h14.57v26.53c1.87-2.5,4.37-4.46,7.49-5.88c3.12-1.42,6.59-2.13,10.41-2.13C561.45,460.62,565.34,461.57,568.74,463.48
			z"/>
		<path d="M604.01,516.34c-4.44-2.46-7.93-5.95-10.46-10.46c-2.53-4.51-3.8-9.71-3.8-15.61c0-5.9,1.3-11.1,3.9-15.61
			c2.6-4.51,6.16-8,10.67-10.46c4.51-2.46,9.54-3.69,15.09-3.69c5.55,0,10.58,1.23,15.09,3.69c4.51,2.46,8.06,5.95,10.67,10.46
			c2.6,4.51,3.9,9.71,3.9,15.61c0,5.9-1.34,11.1-4.01,15.61c-2.67,4.51-6.28,8-10.82,10.46c-4.54,2.46-9.62,3.69-15.24,3.69
			C613.44,520.03,608.45,518.8,604.01,516.34z M626.43,505.41c2.32-1.28,4.18-3.21,5.57-5.78c1.39-2.57,2.08-5.69,2.08-9.37
			c0-5.48-1.44-9.69-4.32-12.64c-2.88-2.95-6.4-4.42-10.56-4.42s-7.65,1.47-10.46,4.42c-2.81,2.95-4.21,7.16-4.21,12.64
			c0,5.48,1.37,9.7,4.11,12.64c2.74,2.95,6.19,4.42,10.35,4.42C621.63,507.34,624.11,506.7,626.43,505.41z"/>
		<path d="M708.38,467.12c4.23,4.34,6.35,10.39,6.35,18.16v33.82h-14.57v-31.84c0-4.58-1.14-8.1-3.43-10.56
			c-2.29-2.46-5.41-3.69-9.37-3.69c-4.02,0-7.2,1.23-9.52,3.69c-2.33,2.46-3.49,5.98-3.49,10.56v31.84h-14.57v-57.65h14.57v7.18
			c1.94-2.5,4.42-4.46,7.44-5.88c3.02-1.42,6.33-2.13,9.94-2.13C698.59,460.62,704.14,462.79,708.38,467.12z"/>
		<path d="M762.48,463.06c3.26,1.7,5.83,3.9,7.7,6.61v-8.22h14.67v58.06c0,5.34-1.08,10.11-3.23,14.31
			c-2.15,4.2-5.38,7.53-9.68,9.99c-4.3,2.46-9.5,3.69-15.61,3.69c-8.19,0-14.9-1.91-20.13-5.72c-5.24-3.82-8.2-9.02-8.9-15.61h14.46
			c0.76,2.63,2.41,4.73,4.94,6.29s5.6,2.34,9.21,2.34c4.23,0,7.67-1.27,10.3-3.8c2.64-2.53,3.95-6.37,3.95-11.5v-8.95
			c-1.87,2.71-4.46,4.96-7.75,6.76c-3.3,1.8-7.06,2.71-11.29,2.71c-4.86,0-9.3-1.25-13.32-3.75c-4.02-2.5-7.2-6.02-9.52-10.56
			c-2.33-4.54-3.49-9.76-3.49-15.66c0-5.83,1.16-10.99,3.49-15.5c2.32-4.51,5.48-7.98,9.47-10.41c3.99-2.43,8.44-3.64,13.37-3.64
			C755.44,460.51,759.22,461.36,762.48,463.06z M768.1,481.17c-1.39-2.53-3.26-4.47-5.62-5.83c-2.36-1.35-4.89-2.03-7.6-2.03
			c-2.71,0-5.2,0.66-7.49,1.98c-2.29,1.32-4.15,3.24-5.57,5.77c-1.42,2.53-2.13,5.53-2.13,9c0,3.47,0.71,6.5,2.13,9.11
			c1.42,2.6,3.29,4.6,5.62,5.98c2.32,1.39,4.8,2.08,7.44,2.08c2.71,0,5.24-0.68,7.6-2.03c2.36-1.35,4.23-3.29,5.62-5.83
			c1.39-2.53,2.08-5.57,2.08-9.11C770.18,486.74,769.49,483.7,768.1,481.17z"/>
		<path d="M809.72,516.34c-4.44-2.46-7.93-5.95-10.46-10.46c-2.53-4.51-3.8-9.71-3.8-15.61c0-5.9,1.3-11.1,3.9-15.61
			c2.6-4.51,6.16-8,10.67-10.46c4.51-2.46,9.54-3.69,15.09-3.69c5.55,0,10.58,1.23,15.09,3.69c4.51,2.46,8.06,5.95,10.67,10.46
			c2.6,4.51,3.9,9.71,3.9,15.61c0,5.9-1.34,11.1-4.01,15.61c-2.67,4.51-6.28,8-10.82,10.46c-4.54,2.46-9.62,3.69-15.24,3.69
			C819.16,520.03,814.16,518.8,809.72,516.34z M832.15,505.41c2.32-1.28,4.18-3.21,5.57-5.78c1.39-2.57,2.08-5.69,2.08-9.37
			c0-5.48-1.44-9.69-4.32-12.64c-2.88-2.95-6.4-4.42-10.56-4.42s-7.65,1.47-10.46,4.42c-2.81,2.95-4.21,7.16-4.21,12.64
			c0,5.48,1.37,9.7,4.11,12.64c2.74,2.95,6.19,4.42,10.35,4.42C827.34,507.34,829.82,506.7,832.15,505.41z"/>
		<path d="M463.75,617.28h-28.93l-4.79,13.84h-15.3l26.12-72.73h16.96l26.12,72.73h-15.4L463.75,617.28z M459.79,605.62
			l-10.51-30.38l-10.51,30.38H459.79z"/>
		<path d="M493.61,586.63c2.43-4.47,5.79-7.94,10.09-10.41c4.3-2.46,9.23-3.69,14.78-3.69c7.14,0,13.06,1.79,17.74,5.36
			c4.68,3.57,7.82,8.58,9.42,15.04h-15.71c-0.83-2.5-2.24-4.46-4.21-5.88c-1.98-1.42-4.42-2.13-7.34-2.13
			c-4.16,0-7.46,1.51-9.88,4.53c-2.43,3.02-3.64,7.3-3.64,12.85c0,5.48,1.21,9.73,3.64,12.75c2.43,3.02,5.72,4.53,9.88,4.53
			c5.9,0,9.75-2.64,11.55-7.91h15.71c-1.6,6.24-4.75,11.2-9.47,14.88c-4.72,3.68-10.61,5.51-17.69,5.51
			c-5.55,0-10.48-1.23-14.78-3.69c-4.3-2.46-7.67-5.93-10.09-10.41c-2.43-4.47-3.64-9.69-3.64-15.66
			C489.97,596.33,491.18,591.11,493.61,586.63z"/>
		<path d="M556.09,586.58c2.32-4.51,5.48-7.98,9.47-10.41c3.99-2.43,8.44-3.64,13.37-3.64c4.3,0,8.06,0.87,11.29,2.6
			c3.23,1.73,5.81,3.92,7.75,6.56v-8.22h14.67v57.65h-14.67v-8.43c-1.87,2.71-4.46,4.94-7.75,6.71c-3.3,1.77-7.09,2.65-11.39,2.65
			c-4.86,0-9.28-1.25-13.27-3.75c-3.99-2.5-7.15-6.02-9.47-10.56c-2.33-4.54-3.49-9.76-3.49-15.66
			C552.61,596.26,553.77,591.09,556.09,586.58z M595.89,593.19c-1.39-2.53-3.26-4.47-5.62-5.83c-2.36-1.35-4.89-2.03-7.6-2.03
			c-2.71,0-5.2,0.66-7.49,1.98c-2.29,1.32-4.15,3.24-5.57,5.77c-1.42,2.53-2.13,5.53-2.13,9c0,3.47,0.71,6.5,2.13,9.1
			s3.29,4.6,5.62,5.98c2.32,1.39,4.8,2.08,7.44,2.08c2.71,0,5.24-0.68,7.6-2.03c2.36-1.35,4.23-3.29,5.62-5.83
			c1.39-2.53,2.08-5.57,2.08-9.1S597.28,595.72,595.89,593.19z"/>
		<path d="M626.64,586.58c2.32-4.51,5.5-7.98,9.52-10.41c4.02-2.43,8.5-3.64,13.42-3.64c3.75,0,7.32,0.82,10.72,2.45
			c3.4,1.63,6.1,3.8,8.12,6.5v-27.37h14.78v77h-14.78v-8.53c-1.8,2.84-4.34,5.13-7.6,6.87c-3.26,1.73-7.04,2.6-11.34,2.6
			c-4.86,0-9.3-1.25-13.32-3.75c-4.02-2.5-7.2-6.02-9.52-10.56c-2.33-4.54-3.49-9.76-3.49-15.66
			C623.16,596.26,624.32,591.09,626.64,586.58z M666.44,593.19c-1.39-2.53-3.26-4.47-5.62-5.83c-2.36-1.35-4.89-2.03-7.6-2.03
			c-2.71,0-5.2,0.66-7.49,1.98c-2.29,1.32-4.15,3.24-5.57,5.77c-1.42,2.53-2.13,5.53-2.13,9c0,3.47,0.71,6.5,2.13,9.1
			s3.29,4.6,5.62,5.98c2.32,1.39,4.8,2.08,7.44,2.08c2.71,0,5.24-0.68,7.6-2.03c2.36-1.35,4.23-3.29,5.62-5.83
			c1.39-2.53,2.08-5.57,2.08-9.1S667.83,595.72,666.44,593.19z"/>
		<path d="M750.62,606.66h-42.14c0.35,4.16,1.8,7.42,4.37,9.78c2.57,2.36,5.72,3.54,9.47,3.54c5.41,0,9.26-2.32,11.55-6.97h15.71
			c-1.67,5.55-4.86,10.11-9.57,13.68c-4.72,3.57-10.51,5.36-17.38,5.36c-5.55,0-10.53-1.23-14.93-3.69
			c-4.41-2.46-7.84-5.95-10.3-10.46c-2.46-4.51-3.69-9.71-3.69-15.61c0-5.96,1.21-11.2,3.64-15.71c2.43-4.51,5.83-7.98,10.2-10.41
			c4.37-2.43,9.4-3.64,15.09-3.64c5.48,0,10.39,1.18,14.72,3.54c4.33,2.36,7.7,5.71,10.09,10.04c2.39,4.34,3.59,9.31,3.59,14.93
			C751.04,603.12,750.9,605,750.62,606.66z M735.95,596.88c-0.07-3.75-1.42-6.75-4.06-9c-2.64-2.25-5.86-3.38-9.68-3.38
			c-3.61,0-6.64,1.09-9.1,3.28c-2.46,2.19-3.97,5.22-4.53,9.1H735.95z"/>
		<path d="M850.36,579.14c4.33,4.34,6.5,10.39,6.5,18.16v33.82h-14.57v-31.84c0-4.51-1.14-7.96-3.43-10.35s-5.41-3.59-9.37-3.59
			s-7.09,1.2-9.42,3.59c-2.33,2.39-3.49,5.84-3.49,10.35v31.84h-14.57v-31.84c0-4.51-1.14-7.96-3.43-10.35s-5.41-3.59-9.37-3.59
			c-4.02,0-7.2,1.2-9.52,3.59c-2.33,2.39-3.49,5.84-3.49,10.35v31.84h-14.57v-57.65h14.57v6.97c1.87-2.43,4.28-4.33,7.23-5.72
			c2.95-1.39,6.19-2.08,9.73-2.08c4.51,0,8.53,0.95,12.07,2.86c3.54,1.91,6.28,4.63,8.22,8.17c1.87-3.33,4.59-6,8.17-8.01
			c3.57-2.01,7.44-3.02,11.6-3.02C840.32,572.64,846.02,574.81,850.36,579.14z"/>
		<path d="M925.85,573.47l-35.69,84.91h-15.5l12.49-28.72l-23.1-56.19h16.34l14.88,40.27l15.09-40.27H925.85z"/>
	</g>
	<g>
		<g>
			<path d="M112.62,437.27h-0.01v-13.68C112.61,428.06,112.61,432.64,112.62,437.27z"/>
		</g>
	</g>
</g>
</svg>
