<?xml version="1.0" encoding="utf-8"?>
<!-- Generator: Adobe Illustrator 26.0.1, SVG Export Plug-In . SVG Version: 6.00 Build 0)  -->
<svg version="1.1" id="Layer_1" xmlns="http://www.w3.org/2000/svg" xmlns:xlink="http://www.w3.org/1999/xlink" x="0px" y="0px"
	 viewBox="0 0 1000 1000" style="enable-background:new 0 0 1000 1000;" xml:space="preserve">
<style type="text/css">
	.st0{fill:#D32027;}
	.st1{fill:none;}
	.st2{fill:#FFFFFF;}
</style>
<g>
	<g>
		<path class="st2" d="M284.58,179.69v35.03h69.05v-35.03H284.58z M284.58,234.1v36.05h69.05V234.1H284.58z M453.27,255.18h25.5
			v-35.36C471.63,232.74,462.79,244.65,453.27,255.18z M499.16,219.48v35.7h25.86C515.16,244.65,506.67,232.74,499.16,219.48z
			 M284.58,234.1v36.05h69.05V234.1H284.58z M284.58,179.69v35.03h69.05v-35.03H284.58z M499.16,219.48v35.7h25.86
			C515.16,244.65,506.67,232.74,499.16,219.48z M453.27,255.18h25.5v-35.36C471.63,232.74,462.79,244.65,453.27,255.18z
			 M284.58,179.69v35.03h69.05v-35.03H284.58z M284.58,234.1v36.05h69.05V234.1H284.58z M453.27,255.18h25.5v-35.36
			C471.63,232.74,462.79,244.65,453.27,255.18z M499.16,219.48v35.7h25.86C515.16,244.65,506.67,232.74,499.16,219.48z
			 M284.58,234.1v36.05h69.05V234.1H284.58z M284.58,179.69v35.03h69.05v-35.03H284.58z M499.16,219.48v35.7h25.86
			C515.16,244.65,506.67,232.74,499.16,219.48z M453.27,255.18h25.5v-35.36C471.63,232.74,462.79,244.65,453.27,255.18z
			 M284.58,179.69v35.03h69.05v-35.03H284.58z M284.58,234.1v36.05h69.05V234.1H284.58z M453.27,255.18h25.5v-35.36
			C471.63,232.74,462.79,244.65,453.27,255.18z M499.16,219.48v35.7h25.86C515.16,244.65,506.67,232.74,499.16,219.48z
			 M613.8,261.99v18.71h15.63v-18.71H613.8z M284.58,234.1v36.05h69.05V234.1H284.58z M284.58,179.69v35.03h69.05v-35.03H284.58z
			 M499.16,219.48v35.7h25.86C515.16,244.65,506.67,232.74,499.16,219.48z M453.27,255.18h25.5v-35.36
			C471.63,232.74,462.79,244.65,453.27,255.18z M613.8,261.99v18.71h15.63v-18.71H613.8z M284.58,179.69v35.03h69.05v-35.03H284.58z
			 M284.58,234.1v36.05h69.05V234.1H284.58z M453.27,255.18h25.5v-35.36C471.63,232.74,462.79,244.65,453.27,255.18z M499.16,219.48
			v35.7h25.86C515.16,244.65,506.67,232.74,499.16,219.48z M613.8,261.99v18.71h15.63v-18.71H613.8z M691,199.76
			c-1.04,5.77-1.71,11.22-2.72,16.33h21.75v-16.33H691z M284.58,234.1v36.05h69.05V234.1H284.58z M284.58,179.69v35.03h69.05v-35.03
			H284.58z M499.16,219.48v35.7h25.86C515.16,244.65,506.67,232.74,499.16,219.48z M453.27,255.18h25.5v-35.36
			C471.63,232.74,462.79,244.65,453.27,255.18z M613.8,261.99v18.71h15.63v-18.71H613.8z M691,199.76
			c-1.04,5.77-1.71,11.22-2.72,16.33h21.75v-16.33H691z M284.58,179.69v35.03h69.05v-35.03H284.58z M284.58,234.1v36.05h69.05V234.1
			H284.58z M453.27,255.18h25.5v-35.36C471.63,232.74,462.79,244.65,453.27,255.18z M499.16,219.48v35.7h25.86
			C515.16,244.65,506.67,232.74,499.16,219.48z M613.8,261.99v18.71h15.63v-18.71H613.8z M691,199.76
			c-1.04,5.77-1.71,11.22-2.72,16.33h21.75v-16.33H691z M679.75,258.92v20.07h33.67v-20.07H679.75z M284.58,234.1v36.05h69.05V234.1
			H284.58z M284.58,179.69v35.03h69.05v-35.03H284.58z M499.16,219.48v35.7h25.86C515.16,244.65,506.67,232.74,499.16,219.48z
			 M453.27,255.18h25.5v-35.36C471.63,232.74,462.79,244.65,453.27,255.18z M613.8,261.99v18.71h15.63v-18.71H613.8z M679.75,258.92
			v20.07h33.67v-20.07H679.75z M691,199.76c-1.04,5.77-1.71,11.22-2.72,16.33h21.75v-16.33H691z M284.58,179.69v35.03h69.05v-35.03
			H284.58z M284.58,234.1v36.05h69.05V234.1H284.58z M453.27,255.18h25.5v-35.36C471.63,232.74,462.79,244.65,453.27,255.18z
			 M499.16,219.48v35.7h25.86C515.16,244.65,506.67,232.74,499.16,219.48z M613.8,261.99v18.71h15.63v-18.71H613.8z M691,199.76
			c-1.04,5.77-1.71,11.22-2.72,16.33h21.75v-16.33H691z M679.75,258.92v20.07h33.67v-20.07H679.75z M284.58,234.1v36.05h69.05V234.1
			H284.58z M284.58,179.69v35.03h69.05v-35.03H284.58z M499.16,219.48v35.7h25.86C515.16,244.65,506.67,232.74,499.16,219.48z
			 M453.27,255.18h25.5v-35.36C471.63,232.74,462.79,244.65,453.27,255.18z M613.8,261.99v18.71h15.63v-18.71H613.8z M679.75,258.92
			v20.07h33.67v-20.07H679.75z M691,199.76c-1.04,5.77-1.71,11.22-2.72,16.33h21.75v-16.33H691z M284.58,179.69v35.03h69.05v-35.03
			H284.58z M284.58,234.1v36.05h69.05V234.1H284.58z M453.27,255.18h25.5v-35.36C471.63,232.74,462.79,244.65,453.27,255.18z
			 M499.16,219.48v35.7h25.86C515.16,244.65,506.67,232.74,499.16,219.48z M613.8,261.99v18.71h15.63v-18.71H613.8z M691,199.76
			c-1.04,5.77-1.71,11.22-2.72,16.33h21.75v-16.33H691z M679.75,258.92v20.07h33.67v-20.07H679.75z M284.58,270.15h69.05V234.1
			h-69.05V270.15z M284.58,179.69v35.03h69.05v-35.03H284.58z M499.16,219.48v35.7h25.86C515.16,244.65,506.67,232.74,499.16,219.48
			z M478.77,255.18v-35.36c-7.14,12.91-15.98,24.83-25.5,35.36H478.77z M613.8,261.99v18.71h15.63v-18.71H613.8z M679.75,258.92
			v20.07h33.67v-20.07H679.75z M691,199.76c-1.04,5.77-1.71,11.22-2.72,16.33h21.75v-16.33H691z M230.17,127.94
			c0,0,0.67,463.19,0.67,466.26c7.16,145.56,127.2,259.82,273.1,259.82c146.23,0,265.94-114.27,273.08-259.82
			c0.17-1.75,0.35-125.58,0.48-245.16c0.13-112.43,0.22-221.09,0.22-221.09H230.17z M655.62,155.21h81.29v16.65h-41.5
			c-0.35,3.74-1.02,7.48-1.71,11.57h34.71v32.65h14.27v16.65H649.5v-16.65h20.07c1.02-5.1,2.03-10.55,2.7-16.33h-13.58v-16.33H675
			c0.69-4.09,1.04-7.83,1.71-11.57h-21.08V155.21z M679.75,296.33v6.12h-18.36v-60.87h70.74v59.86h-18.71v-5.1H679.75z
			 M598.83,155.53h45.91v14.64h-45.91V155.53z M590.31,177.98h60.2v15.31h-60.2V177.98z M644.74,223.89v14.64h-46.95v-14.64H644.74z
			 M597.79,215.74v-14.29h46.95v14.29H597.79z M645.76,246.68v49.31H613.8v6.12h-16.33v-55.42H645.76z M417.9,201.79v-19.72h60.87
			v-31.29l24.83,1.36c0,1.36-1.36,2.38-4.43,3.07v26.86h61.57v19.72h-50c12.93,24.15,33.67,46.6,56.81,58.84
			c-4.76,4.07-11.57,11.89-14.96,17.34c-9.54-5.77-18.38-12.93-26.53-21.78v18.71h-26.88v27.55h-20.39V274.9h-27.9v-17.34
			c-7.81,8.17-16.31,15.31-25.5,21.08c-3.39-4.76-9.51-12.24-13.95-16.33c22.79-12.24,43.21-35.7,55.77-60.53H417.9z M264.51,160.29
			h109.86v139.78h-20.74v-10.53h-69.05v10.53h-20.07V160.29z M755.94,382.66c0,43.42,0,88.64-0.04,126.01c0,4.43,0,8.76-0.02,12.95
			c-0.02,12.59-0.02,24.03-0.04,33.89c-0.02,9.06-0.04,16.78-0.09,22.84c0,1.1,0,2.14-0.02,3.14c0,1.49-0.02,2.83-0.02,4.07
			c0,1.9-0.02,3.46-0.04,4.69c0,0.35,0,0.67-0.02,0.97c0,0.43,0,0.82-0.02,1.12c0,0.41,0,0.69-0.02,0.84
			c-6.44,134.33-116.97,239.41-251.65,239.41S258.74,727.52,252.27,593.18c0-1.17-0.04-13.06-0.09-31.96c0-3.35-0.02-6.94-0.02-10.7
			c0-5.71-0.02-11.87-0.04-18.42c0-2.83,0-5.71-0.02-8.67c0-4.45,0-9.04-0.02-13.75c0-4.71,0-9.56-0.02-14.51
			c0-4.39-0.02-8.89-0.02-13.45c0-4.56,0-9.19-0.02-13.88c0-4.69,0-9.45-0.02-14.23c0-9.6,0-19.35-0.02-29.19
			c0-6.83-0.02-13.71-0.02-20.59c-0.02-9.71-0.02-19.4-0.02-28.98v-47.6h504.01V382.66z M713.42,258.92h-33.67v20.07h33.67V258.92z
			 M710.03,199.76H691c-1.04,5.77-1.71,11.22-2.72,16.33h21.75V199.76z M629.43,261.99H613.8v18.71h15.63V261.99z M499.16,219.48
			v35.7h25.86C515.16,244.65,506.67,232.74,499.16,219.48z M478.77,219.82c-7.14,12.91-15.98,24.83-25.5,35.36h25.5V219.82z
			 M353.63,234.1h-69.05v36.05h69.05V234.1z M353.63,179.69h-69.05v35.03h69.05V179.69z M691,199.76
			c-1.04,5.77-1.71,11.22-2.72,16.33h21.75v-16.33H691z M679.75,258.92v20.07h33.67v-20.07H679.75z M613.8,261.99v18.71h15.63
			v-18.71H613.8z M453.27,255.18h25.5v-35.36C471.63,232.74,462.79,244.65,453.27,255.18z M499.16,219.48v35.7h25.86
			C515.16,244.65,506.67,232.74,499.16,219.48z M284.58,179.69v35.03h69.05v-35.03H284.58z M284.58,234.1v36.05h69.05V234.1H284.58z
			 M679.75,258.92v20.07h33.67v-20.07H679.75z M691,199.76c-1.04,5.77-1.71,11.22-2.72,16.33h21.75v-16.33H691z M613.8,261.99v18.71
			h15.63v-18.71H613.8z M499.16,219.48v35.7h25.86C515.16,244.65,506.67,232.74,499.16,219.48z M453.27,255.18h25.5v-35.36
			C471.63,232.74,462.79,244.65,453.27,255.18z M284.58,234.1v36.05h69.05V234.1H284.58z M284.58,179.69v35.03h69.05v-35.03H284.58z
			 M691,199.76c-1.04,5.77-1.71,11.22-2.72,16.33h21.75v-16.33H691z M679.75,258.92v20.07h33.67v-20.07H679.75z M613.8,261.99v18.71
			h15.63v-18.71H613.8z M453.27,255.18h25.5v-35.36C471.63,232.74,462.79,244.65,453.27,255.18z M499.16,219.48v35.7h25.86
			C515.16,244.65,506.67,232.74,499.16,219.48z M284.58,179.69v35.03h69.05v-35.03H284.58z M284.58,234.1v36.05h69.05V234.1H284.58z
			 M679.75,258.92v20.07h33.67v-20.07H679.75z M691,199.76c-1.04,5.77-1.71,11.22-2.72,16.33h21.75v-16.33H691z M613.8,261.99v18.71
			h15.63v-18.71H613.8z M499.16,219.48v35.7h25.86C515.16,244.65,506.67,232.74,499.16,219.48z M453.27,255.18h25.5v-35.36
			C471.63,232.74,462.79,244.65,453.27,255.18z M284.58,234.1v36.05h69.05V234.1H284.58z M284.58,179.69v35.03h69.05v-35.03H284.58z
			 M691,199.76c-1.04,5.77-1.71,11.22-2.72,16.33h21.75v-16.33H691z M679.75,258.92v20.07h33.67v-20.07H679.75z M613.8,261.99v18.71
			h15.63v-18.71H613.8z M453.27,255.18h25.5v-35.36C471.63,232.74,462.79,244.65,453.27,255.18z M499.16,219.48v35.7h25.86
			C515.16,244.65,506.67,232.74,499.16,219.48z M284.58,179.69v35.03h69.05v-35.03H284.58z M284.58,234.1v36.05h69.05V234.1H284.58z
			 M679.75,258.92v20.07h33.67v-20.07H679.75z M691,199.76c-1.04,5.77-1.71,11.22-2.72,16.33h21.75v-16.33H691z M613.8,261.99v18.71
			h15.63v-18.71H613.8z M499.16,219.48v35.7h25.86C515.16,244.65,506.67,232.74,499.16,219.48z M453.27,255.18h25.5v-35.36
			C471.63,232.74,462.79,244.65,453.27,255.18z M284.58,234.1v36.05h69.05V234.1H284.58z M284.58,179.69v35.03h69.05v-35.03H284.58z
			 M613.8,261.99v18.71h15.63v-18.71H613.8z M453.27,255.18h25.5v-35.36C471.63,232.74,462.79,244.65,453.27,255.18z M499.16,219.48
			v35.7h25.86C515.16,244.65,506.67,232.74,499.16,219.48z M284.58,179.69v35.03h69.05v-35.03H284.58z M284.58,234.1v36.05h69.05
			V234.1H284.58z M613.8,261.99v18.71h15.63v-18.71H613.8z M499.16,219.48v35.7h25.86C515.16,244.65,506.67,232.74,499.16,219.48z
			 M453.27,255.18h25.5v-35.36C471.63,232.74,462.79,244.65,453.27,255.18z M284.58,234.1v36.05h69.05V234.1H284.58z M284.58,179.69
			v35.03h69.05v-35.03H284.58z M453.27,255.18h25.5v-35.36C471.63,232.74,462.79,244.65,453.27,255.18z M499.16,219.48v35.7h25.86
			C515.16,244.65,506.67,232.74,499.16,219.48z M284.58,179.69v35.03h69.05v-35.03H284.58z M284.58,234.1v36.05h69.05V234.1H284.58z
			 M499.16,219.48v35.7h25.86C515.16,244.65,506.67,232.74,499.16,219.48z M453.27,255.18h25.5v-35.36
			C471.63,232.74,462.79,244.65,453.27,255.18z M284.58,234.1v36.05h69.05V234.1H284.58z M284.58,179.69v35.03h69.05v-35.03H284.58z
			 M453.27,255.18h25.5v-35.36C471.63,232.74,462.79,244.65,453.27,255.18z M499.16,219.48v35.7h25.86
			C515.16,244.65,506.67,232.74,499.16,219.48z M284.58,179.69v35.03h69.05v-35.03H284.58z M284.58,234.1v36.05h69.05V234.1H284.58z
			 M499.16,219.48v35.7h25.86C515.16,244.65,506.67,232.74,499.16,219.48z M453.27,255.18h25.5v-35.36
			C471.63,232.74,462.79,244.65,453.27,255.18z M284.58,234.1v36.05h69.05V234.1H284.58z M284.58,179.69v35.03h69.05v-35.03H284.58z
			 M284.58,179.69v35.03h69.05v-35.03H284.58z M284.58,234.1v36.05h69.05V234.1H284.58z M284.58,234.1v36.05h69.05V234.1H284.58z
			 M284.58,179.69v35.03h69.05v-35.03H284.58z"/>
	</g>
	<g>
		<path class="st2" d="M732.82,351.02H275.06c0,0,0,9.19,0,24.16c0,28.74,0,64.4,0.02,98.26c0,11.53,0,22.86,0.02,33.63
			c0,6.16,0.02,12.13,0.02,17.86c0,4.52,0,8.91,0.02,13.08c0,4.2,0.02,8.22,0.02,12c0.02,7.57,0.04,14.29,0.06,19.9v2.23
			c0.04,6.29,0.06,10.94,0.11,13.56c0.02,1.45,0.04,2.25,0.06,2.38c5.77,121.06,106.09,217.66,228.53,217.66
			c122.77,0,222.76-96.6,228.53-217.66c0.02-0.15,0.04-0.8,0.04-1.92c0.02-0.56,0.02-1.23,0.02-2.01c0.02-0.8,0.02-1.69,0.02-2.68
			c0.02-1.25,0.02-2.66,0.02-4.22c0.02-0.78,0.02-1.6,0.02-2.47c0.09-11.12,0.11-28.42,0.13-48.94c0.02-10.1,0.04-20.98,0.04-32.26
			c0.02-17.43,0.04-35.88,0.02-54c0.02-20.05,0.02-39.73,0.02-57.26C732.82,363.29,732.82,351.02,732.82,351.02z M679.75,615.63
			c-5.08,15.98-12.56,30.6-21.75,44.2c-8.84,12.93-19.38,24.5-30.95,34.71c-31.64,27.53-72.79,44.2-117.68,44.2
			c-1.34,0-129.56,0-129.56,0l31.96-29.24l16.67-14.96h77.53v-0.35c1.02,0.35,2.38,0.35,3.4,0.35c34.71,0,66.32-13.28,90.48-34.71
			c13.6-12.24,24.83-27.53,32.31-44.2c8.15-17,12.59-36.39,12.59-56.46c0-21.08-4.76-40.81-13.28-58.5
			c-8.15-17.34-20.07-32.31-33.99-44.2c-23.81-20.41-54.43-32.65-88.1-32.65h-98.96v191.81h96.25c0,0,4.41-0.35,6.47-0.35
			c31.62,0,57.46-25.5,57.46-57.13c0-31.96-25.84-57.48-57.46-57.48h-65.31v-44.2h72.77c31.64,2.38,59.53,19.05,76.53,44.2
			c11.22,16.33,17.69,36.05,17.69,57.48c0,21.08-6.47,41.15-17.69,57.48c-18.36,26.53-48.63,43.88-82.98,44.2H366.54l-0.32-159.16
			V379.61h143.16c44.89,0,86.05,16.65,117.68,44.2c10.88,9.54,21.08,20.41,29.24,32.65c5.1,7.14,9.54,14.62,13.6,22.45
			c12.26,24.16,19.05,51.36,19.05,80.25C688.94,578.91,685.55,597.94,679.75,615.63z M447.82,581.29v-18.71h111.54
			c-0.32,6.79-2.38,13.26-5.77,18.71H447.82z M548.49,589.44c-9.17,11.57-23.14,18.71-39.12,18.71h-61.54v-18.71H548.49z
			 M447.82,554.41V535.7h106.44c3.07,5.8,4.78,11.92,5.1,18.71H447.82z M447.82,526.19v-18.04h64.96
			c14.27,0.69,26.86,7.48,35.36,18.04H447.82z"/>
	</g>
	<g>
		<path class="st2" d="M251.95,374.83h-0.02v-29.58C251.92,354.92,251.92,364.82,251.95,374.83z"/>
	</g>
</g>
</svg>
