<?xml version="1.0" encoding="utf-8"?>
<!-- Generator: Adobe Illustrator 26.0.1, SVG Export Plug-In . SVG Version: 6.00 Build 0)  -->
<svg version="1.1" id="Layer_1" xmlns="http://www.w3.org/2000/svg" xmlns:xlink="http://www.w3.org/1999/xlink" x="0px" y="0px"
	 viewBox="0 0 1000 1000" style="enable-background:new 0 0 1000 1000;" xml:space="preserve">
<style type="text/css">
	.st0{fill:#D32027;}
	.st1{fill:none;}
	.st2{fill:#FFFFFF;}
</style>
<g>
	<g>
		<path d="M272.21,166.55v36.51h71.96v-36.51H272.21z M272.21,223.26v37.57h71.96v-37.57H272.21z M448.03,245.23h26.57v-36.85
			C467.16,221.84,457.95,234.26,448.03,245.23z M495.85,208.02v37.21h26.95C512.53,234.26,503.67,221.84,495.85,208.02z
			 M272.21,223.26v37.57h71.96v-37.57H272.21z M272.21,166.55v36.51h71.96v-36.51H272.21z M495.85,208.02v37.21h26.95
			C512.53,234.26,503.67,221.84,495.85,208.02z M448.03,245.23h26.57v-36.85C467.16,221.84,457.95,234.26,448.03,245.23z
			 M272.21,166.55v36.51h71.96v-36.51H272.21z M272.21,223.26v37.57h71.96v-37.57H272.21z M448.03,245.23h26.57v-36.85
			C467.16,221.84,457.95,234.26,448.03,245.23z M495.85,208.02v37.21h26.95C512.53,234.26,503.67,221.84,495.85,208.02z
			 M272.21,223.26v37.57h71.96v-37.57H272.21z M272.21,166.55v36.51h71.96v-36.51H272.21z M495.85,208.02v37.21h26.95
			C512.53,234.26,503.67,221.84,495.85,208.02z M448.03,245.23h26.57v-36.85C467.16,221.84,457.95,234.26,448.03,245.23z
			 M272.21,166.55v36.51h71.96v-36.51H272.21z M272.21,223.26v37.57h71.96v-37.57H272.21z M448.03,245.23h26.57v-36.85
			C467.16,221.84,457.95,234.26,448.03,245.23z M495.85,208.02v37.21h26.95C512.53,234.26,503.67,221.84,495.85,208.02z
			 M615.33,252.33v19.5h16.29v-19.5H615.33z M272.21,223.26v37.57h71.96v-37.57H272.21z M272.21,166.55v36.51h71.96v-36.51H272.21z
			 M495.85,208.02v37.21h26.95C512.53,234.26,503.67,221.84,495.85,208.02z M448.03,245.23h26.57v-36.85
			C467.16,221.84,457.95,234.26,448.03,245.23z M615.33,252.33v19.5h16.29v-19.5H615.33z M272.21,166.55v36.51h71.96v-36.51H272.21z
			 M272.21,223.26v37.57h71.96v-37.57H272.21z M448.03,245.23h26.57v-36.85C467.16,221.84,457.95,234.26,448.03,245.23z
			 M495.85,208.02v37.21h26.95C512.53,234.26,503.67,221.84,495.85,208.02z M615.33,252.33v19.5h16.29v-19.5H615.33z M695.78,187.47
			c-1.08,6.02-1.78,11.7-2.84,17.02h22.67v-17.02H695.78z M272.21,223.26v37.57h71.96v-37.57H272.21z M272.21,166.55v36.51h71.96
			v-36.51H272.21z M495.85,208.02v37.21h26.95C512.53,234.26,503.67,221.84,495.85,208.02z M448.03,245.23h26.57v-36.85
			C467.16,221.84,457.95,234.26,448.03,245.23z M615.33,252.33v19.5h16.29v-19.5H615.33z M695.78,187.47
			c-1.08,6.02-1.78,11.7-2.84,17.02h22.67v-17.02H695.78z M272.21,166.55v36.51h71.96v-36.51H272.21z M272.21,223.26v37.57h71.96
			v-37.57H272.21z M448.03,245.23h26.57v-36.85C467.16,221.84,457.95,234.26,448.03,245.23z M495.85,208.02v37.21h26.95
			C512.53,234.26,503.67,221.84,495.85,208.02z M615.33,252.33v19.5h16.29v-19.5H615.33z M695.78,187.47
			c-1.08,6.02-1.78,11.7-2.84,17.02h22.67v-17.02H695.78z M684.07,249.13v20.91h35.09v-20.91H684.07z M272.21,223.26v37.57h71.96
			v-37.57H272.21z M272.21,166.55v36.51h71.96v-36.51H272.21z M495.85,208.02v37.21h26.95
			C512.53,234.26,503.67,221.84,495.85,208.02z M448.03,245.23h26.57v-36.85C467.16,221.84,457.95,234.26,448.03,245.23z
			 M615.33,252.33v19.5h16.29v-19.5H615.33z M684.07,249.13v20.91h35.09v-20.91H684.07z M695.78,187.47
			c-1.08,6.02-1.78,11.7-2.84,17.02h22.67v-17.02H695.78z M272.21,166.55v36.51h71.96v-36.51H272.21z M272.21,223.26v37.57h71.96
			v-37.57H272.21z M448.03,245.23h26.57v-36.85C467.16,221.84,457.95,234.26,448.03,245.23z M495.85,208.02v37.21h26.95
			C512.53,234.26,503.67,221.84,495.85,208.02z M615.33,252.33v19.5h16.29v-19.5H615.33z M695.78,187.47
			c-1.08,6.02-1.78,11.7-2.84,17.02h22.67v-17.02H695.78z M684.07,249.13v20.91h35.09v-20.91H684.07z M272.21,223.26v37.57h71.96
			v-37.57H272.21z M272.21,166.55v36.51h71.96v-36.51H272.21z M495.85,208.02v37.21h26.95
			C512.53,234.26,503.67,221.84,495.85,208.02z M448.03,245.23h26.57v-36.85C467.16,221.84,457.95,234.26,448.03,245.23z
			 M615.33,252.33v19.5h16.29v-19.5H615.33z M684.07,249.13v20.91h35.09v-20.91H684.07z M695.78,187.47
			c-1.08,6.02-1.78,11.7-2.84,17.02h22.67v-17.02H695.78z M272.21,166.55v36.51h71.96v-36.51H272.21z M272.21,223.26v37.57h71.96
			v-37.57H272.21z M448.03,245.23h26.57v-36.85C467.16,221.84,457.95,234.26,448.03,245.23z M495.85,208.02v37.21h26.95
			C512.53,234.26,503.67,221.84,495.85,208.02z M615.33,252.33v19.5h16.29v-19.5H615.33z M695.78,187.47
			c-1.08,6.02-1.78,11.7-2.84,17.02h22.67v-17.02H695.78z M684.07,249.13v20.91h35.09v-20.91H684.07z M272.21,260.83h71.96v-37.57
			h-71.96V260.83z M272.21,166.55v36.51h71.96v-36.51H272.21z M495.85,208.02v37.21h26.95
			C512.53,234.26,503.67,221.84,495.85,208.02z M474.6,245.23v-36.85c-7.44,13.46-16.66,25.87-26.57,36.85H474.6z M615.33,252.33
			v19.5h16.29v-19.5H615.33z M684.07,249.13v20.91h35.09v-20.91H684.07z M695.78,187.47c-1.08,6.02-1.78,11.7-2.84,17.02h22.67
			v-17.02H695.78z M215.51,112.62c0,0,0.7,482.73,0.7,485.93c7.46,151.7,132.57,270.79,284.63,270.79
			c152.4,0,277.17-119.09,284.6-270.79c0.18-1.83,0.36-130.88,0.5-255.51c0.14-117.17,0.23-230.42,0.23-230.42H215.51z
			 M658.91,141.04h84.72v17.35h-43.25c-0.36,3.9-1.06,7.8-1.78,12.06h36.17v34.03h14.87v17.35h-97.11v-17.35h20.91
			c1.06-5.32,2.12-11,2.82-17.02h-14.15v-17.02h16.99c0.72-4.26,1.08-8.16,1.78-12.06h-21.97V141.04z M684.07,288.12v6.38h-19.13
			v-63.44h73.72v62.38h-19.49v-5.32H684.07z M599.73,141.38h47.85v15.26h-47.85V141.38z M590.85,164.77h62.74v15.96h-62.74V164.77z
			 M647.58,212.62v15.26h-48.93v-15.26H647.58z M598.65,204.12v-14.9h48.93v14.9H598.65z M648.64,236.37v51.39h-33.31v6.38h-17.02
			v-57.76H648.64z M411.16,189.59v-20.55h63.44v-32.61l25.87,1.42c0,1.42-1.42,2.48-4.62,3.2v27.99h64.16v20.55h-52.11
			c13.48,25.17,35.09,48.57,59.21,61.32c-4.96,4.24-12.06,12.4-15.6,18.08c-9.94-6.02-19.16-13.48-27.65-22.7v19.49h-28.01v28.71
			H474.6v-28.71h-29.07v-18.08c-8.14,8.52-16.99,15.96-26.57,21.97c-3.54-4.96-9.92-12.76-14.54-17.02
			c23.75-12.76,45.03-37.21,58.12-63.08H411.16z M251.3,146.34h114.49v145.68h-21.61v-10.98h-71.96v10.98H251.3V146.34z
			 M763.46,378.09c0,45.26,0,92.38-0.05,131.33c0,4.62,0,9.13-0.02,13.5c-0.02,13.12-0.02,25.04-0.05,35.32
			c-0.02,9.44-0.05,17.49-0.09,23.8c0,1.15,0,2.23-0.02,3.27c0,1.56-0.02,2.95-0.02,4.24c0,1.98-0.02,3.61-0.04,4.89
			c0,0.36,0,0.7-0.02,1.01c0,0.45,0,0.86-0.02,1.17c0,0.43,0,0.72-0.02,0.88c-6.72,140-121.91,249.51-262.27,249.51
			S245.28,737.5,238.54,597.49c0-1.22-0.05-13.61-0.09-33.31c0-3.49-0.02-7.23-0.02-11.16c0-5.95-0.02-12.37-0.05-19.2
			c0-2.95,0-5.95-0.02-9.04c0-4.64,0-9.42-0.02-14.33c0-4.91,0-9.96-0.02-15.12c0-4.58-0.02-9.26-0.02-14.02
			c0-4.76,0-9.58-0.02-14.47c0-4.89,0-9.85-0.02-14.83c0-10.01,0-20.17-0.02-30.43c0-7.12-0.02-14.29-0.02-21.46
			c-0.02-10.12-0.02-20.22-0.02-30.2v-49.61h525.28V378.09z M719.16,249.13h-35.09v20.91h35.09V249.13z M715.62,187.47h-19.83
			c-1.08,6.02-1.78,11.7-2.84,17.02h22.67V187.47z M631.62,252.33h-16.29v19.5h16.29V252.33z M495.85,208.02v37.21h26.95
			C512.53,234.26,503.67,221.84,495.85,208.02z M474.6,208.38c-7.44,13.46-16.66,25.87-26.57,36.85h26.57V208.38z M344.18,223.26
			h-71.96v37.57h71.96V223.26z M344.18,166.55h-71.96v36.51h71.96V166.55z M695.78,187.47c-1.08,6.02-1.78,11.7-2.84,17.02h22.67
			v-17.02H695.78z M684.07,249.13v20.91h35.09v-20.91H684.07z M615.33,252.33v19.5h16.29v-19.5H615.33z M448.03,245.23h26.57v-36.85
			C467.16,221.84,457.95,234.26,448.03,245.23z M495.85,208.02v37.21h26.95C512.53,234.26,503.67,221.84,495.85,208.02z
			 M272.21,166.55v36.51h71.96v-36.51H272.21z M272.21,223.26v37.57h71.96v-37.57H272.21z M684.07,249.13v20.91h35.09v-20.91H684.07
			z M695.78,187.47c-1.08,6.02-1.78,11.7-2.84,17.02h22.67v-17.02H695.78z M615.33,252.33v19.5h16.29v-19.5H615.33z M495.85,208.02
			v37.21h26.95C512.53,234.26,503.67,221.84,495.85,208.02z M448.03,245.23h26.57v-36.85C467.16,221.84,457.95,234.26,448.03,245.23
			z M272.21,223.26v37.57h71.96v-37.57H272.21z M272.21,166.55v36.51h71.96v-36.51H272.21z M695.78,187.47
			c-1.08,6.02-1.78,11.7-2.84,17.02h22.67v-17.02H695.78z M684.07,249.13v20.91h35.09v-20.91H684.07z M615.33,252.33v19.5h16.29
			v-19.5H615.33z M448.03,245.23h26.57v-36.85C467.16,221.84,457.95,234.26,448.03,245.23z M495.85,208.02v37.21h26.95
			C512.53,234.26,503.67,221.84,495.85,208.02z M272.21,166.55v36.51h71.96v-36.51H272.21z M272.21,223.26v37.57h71.96v-37.57
			H272.21z M684.07,249.13v20.91h35.09v-20.91H684.07z M695.78,187.47c-1.08,6.02-1.78,11.7-2.84,17.02h22.67v-17.02H695.78z
			 M615.33,252.33v19.5h16.29v-19.5H615.33z M495.85,208.02v37.21h26.95C512.53,234.26,503.67,221.84,495.85,208.02z M448.03,245.23
			h26.57v-36.85C467.16,221.84,457.95,234.26,448.03,245.23z M272.21,223.26v37.57h71.96v-37.57H272.21z M272.21,166.55v36.51h71.96
			v-36.51H272.21z M695.78,187.47c-1.08,6.02-1.78,11.7-2.84,17.02h22.67v-17.02H695.78z M684.07,249.13v20.91h35.09v-20.91H684.07z
			 M615.33,252.33v19.5h16.29v-19.5H615.33z M448.03,245.23h26.57v-36.85C467.16,221.84,457.95,234.26,448.03,245.23z
			 M495.85,208.02v37.21h26.95C512.53,234.26,503.67,221.84,495.85,208.02z M272.21,166.55v36.51h71.96v-36.51H272.21z
			 M272.21,223.26v37.57h71.96v-37.57H272.21z M684.07,249.13v20.91h35.09v-20.91H684.07z M695.78,187.47
			c-1.08,6.02-1.78,11.7-2.84,17.02h22.67v-17.02H695.78z M615.33,252.33v19.5h16.29v-19.5H615.33z M495.85,208.02v37.21h26.95
			C512.53,234.26,503.67,221.84,495.85,208.02z M448.03,245.23h26.57v-36.85C467.16,221.84,457.95,234.26,448.03,245.23z
			 M272.21,223.26v37.57h71.96v-37.57H272.21z M272.21,166.55v36.51h71.96v-36.51H272.21z M615.33,252.33v19.5h16.29v-19.5H615.33z
			 M448.03,245.23h26.57v-36.85C467.16,221.84,457.95,234.26,448.03,245.23z M495.85,208.02v37.21h26.95
			C512.53,234.26,503.67,221.84,495.85,208.02z M272.21,166.55v36.51h71.96v-36.51H272.21z M272.21,223.26v37.57h71.96v-37.57
			H272.21z M615.33,252.33v19.5h16.29v-19.5H615.33z M495.85,208.02v37.21h26.95C512.53,234.26,503.67,221.84,495.85,208.02z
			 M448.03,245.23h26.57v-36.85C467.16,221.84,457.95,234.26,448.03,245.23z M272.21,223.26v37.57h71.96v-37.57H272.21z
			 M272.21,166.55v36.51h71.96v-36.51H272.21z M448.03,245.23h26.57v-36.85C467.16,221.84,457.95,234.26,448.03,245.23z
			 M495.85,208.02v37.21h26.95C512.53,234.26,503.67,221.84,495.85,208.02z M272.21,166.55v36.51h71.96v-36.51H272.21z
			 M272.21,223.26v37.57h71.96v-37.57H272.21z M495.85,208.02v37.21h26.95C512.53,234.26,503.67,221.84,495.85,208.02z
			 M448.03,245.23h26.57v-36.85C467.16,221.84,457.95,234.26,448.03,245.23z M272.21,223.26v37.57h71.96v-37.57H272.21z
			 M272.21,166.55v36.51h71.96v-36.51H272.21z M448.03,245.23h26.57v-36.85C467.16,221.84,457.95,234.26,448.03,245.23z
			 M495.85,208.02v37.21h26.95C512.53,234.26,503.67,221.84,495.85,208.02z M272.21,166.55v36.51h71.96v-36.51H272.21z
			 M272.21,223.26v37.57h71.96v-37.57H272.21z M495.85,208.02v37.21h26.95C512.53,234.26,503.67,221.84,495.85,208.02z
			 M448.03,245.23h26.57v-36.85C467.16,221.84,457.95,234.26,448.03,245.23z M272.21,223.26v37.57h71.96v-37.57H272.21z
			 M272.21,166.55v36.51h71.96v-36.51H272.21z M272.21,166.55v36.51h71.96v-36.51H272.21z M272.21,223.26v37.57h71.96v-37.57H272.21
			z M272.21,223.26v37.57h71.96v-37.57H272.21z M272.21,166.55v36.51h71.96v-36.51H272.21z"/>
	</g>
	<g>
		<path d="M739.37,345.12H262.3c0,0,0,9.58,0,25.17c0,29.95,0,67.12,0.02,102.41c0,12.01,0,23.82,0.02,35.05
			c0,6.42,0.02,12.64,0.02,18.62c0,4.71,0,9.29,0.02,13.64c0,4.37,0.02,8.56,0.02,12.51c0.02,7.89,0.05,14.9,0.07,20.73v2.32
			c0.05,6.56,0.07,11.4,0.11,14.13c0.02,1.51,0.05,2.34,0.07,2.48c6.02,126.16,110.57,226.84,238.18,226.84
			c127.95,0,232.16-100.68,238.18-226.84c0.02-0.16,0.05-0.83,0.05-2.01c0.02-0.59,0.02-1.28,0.02-2.1
			c0.02-0.83,0.02-1.76,0.02-2.79c0.02-1.31,0.02-2.77,0.02-4.39c0.02-0.81,0.02-1.67,0.02-2.57c0.09-11.58,0.11-29.61,0.14-51
			c0.02-10.52,0.05-21.86,0.05-33.63c0.02-18.17,0.05-37.39,0.02-56.28c0.02-20.89,0.02-41.4,0.02-59.68
			C739.37,357.9,739.37,345.12,739.37,345.12z M684.07,620.89c-5.3,16.66-13.09,31.89-22.67,46.07
			c-9.22,13.48-20.19,25.53-32.25,36.17c-32.97,28.69-75.86,46.07-122.65,46.07c-1.4,0-135.02,0-135.02,0l33.31-30.47l17.38-15.6
			h80.8v-0.36c1.06,0.36,2.48,0.36,3.54,0.36c36.17,0,69.12-13.84,94.3-36.17c14.18-12.76,25.87-28.69,33.67-46.07
			c8.5-17.71,13.12-37.93,13.12-58.85c0-21.97-4.96-42.53-13.84-60.96c-8.5-18.08-20.91-33.67-35.43-46.07
			c-24.81-21.28-56.73-34.03-91.82-34.03H403.36v199.91h100.31c0,0,4.6-0.36,6.74-0.36c32.95,0,59.88-26.57,59.88-59.54
			c0-33.31-26.93-59.9-59.88-59.9h-68.06v-46.07h75.84c32.97,2.48,62.05,19.86,79.76,46.07c11.7,17.02,18.44,37.57,18.44,59.9
			c0,21.97-6.74,42.89-18.44,59.9c-19.13,27.65-50.69,45.73-86.48,46.07H357.63l-0.34-165.88V374.91h149.2
			c46.79,0,89.68,17.35,122.65,46.07c11.34,9.94,21.97,21.28,30.47,34.03c5.32,7.44,9.94,15.24,14.18,23.39
			c12.78,25.17,19.86,53.53,19.86,83.64C693.64,582.62,690.11,602.45,684.07,620.89z M442.35,585.1v-19.5H558.6
			c-0.34,7.08-2.48,13.82-6.02,19.5H442.35z M547.26,593.59c-9.56,12.06-24.12,19.49-40.77,19.49h-64.14v-19.49H547.26z
			 M442.35,557.08v-19.49h110.93c3.2,6.04,4.98,12.42,5.32,19.49H442.35z M442.35,527.67v-18.8h67.7
			c14.87,0.72,27.99,7.8,36.85,18.8H442.35z"/>
	</g>
	<g>
		<g>
			<path d="M238.21,369.93h-0.02V339.1C238.18,349.17,238.18,359.5,238.21,369.93z"/>
		</g>
	</g>
</g>
</svg>
