<?xml version="1.0" encoding="utf-8"?>
<!-- Generator: Adobe Illustrator 26.0.1, SVG Export Plug-In . SVG Version: 6.00 Build 0)  -->
<svg version="1.1" id="Layer_1" xmlns="http://www.w3.org/2000/svg" xmlns:xlink="http://www.w3.org/1999/xlink" x="0px" y="0px"
	 viewBox="0 0 1000 1000" style="enable-background:new 0 0 1000 1000;" xml:space="preserve">
<style type="text/css">
	.st0{fill:#D32027;}
	.st1{fill:none;}
	.st2{fill:#FFFFFF;}
</style>
<g>
	<g>
		<path class="st2" d="M717.62,350.26c0,69.4,0,232.21-0.33,235.21c-5.67,118.77-103.76,213.52-224.2,213.52
			c-120.11,0-218.53-94.75-224.2-213.52c-0.33-2-0.33-177.49-0.33-242.21l-22.69-0.33c0,105.76,0.34,243.55,0.34,247.55
			c6.34,131.78,114.77,234.87,246.88,234.87s240.54-103.09,246.88-234.87c0.33-5.01,0.33-136.12,0.33-239.88L717.62,350.26z"/>
	</g>
	<g>
		<path class="st0" d="M224.52,134.07c0,0,0.67,454.4,0.67,457.4c7,142.79,124.78,254.89,267.9,254.89
			c143.46,0,260.9-112.1,267.9-254.89c0.33-3.34,0.67-457.4,0.67-457.4H224.52z M740.3,383.95c0,96.42,0,201.84-0.33,206.52
			c-6.34,131.78-114.77,234.87-246.88,234.87S252.54,722.25,246.21,590.47c0-3.67-0.34-115.1-0.34-214.19v-29.03l494.44-8.01V383.95
			z"/>
	</g>
	<g>
		<path class="st0" d="M717.62,329.57v23.35c0,0,0,12.01,0,30.69c0,78.07,0,199.51-0.33,201.84
			c-5.67,118.77-103.76,213.52-224.2,213.52c-120.11,0-218.53-94.75-224.2-213.52c-0.33-1.67-0.33-131.12-0.33-208.85
			c0-14.68,0-23.69,0-23.69v-23.35H717.62z"/>
	</g>
	<g>
		<g>
			<path class="st2" d="M358.3,655.87l-0.33-156.14V380.96h140.46c44.04,0,84.41,16.35,115.44,43.37
				c10.67,9.34,20.68,20.02,28.69,32.03c5,7,9.34,14.35,13.34,22.02c12.01,23.69,18.69,50.38,18.69,78.74
				c0,19.35-3.34,38.03-9.01,55.38c-5,15.68-12.34,30.03-21.35,43.37c-8.67,12.68-19.02,24.02-30.36,34.03
				c-31.03,27.02-71.4,43.37-115.44,43.37c-1.33,0-2.66,0-3.67-0.33v0.33H371.32l31.36-28.69l16.35-14.68h76.07v-0.33
				c0.99,0.33,2.33,0.33,3.33,0.33c34.03,0,65.06-13.01,88.75-34.03c13.34-12.01,24.35-27.02,31.69-43.37
				c8.01-16.68,12.34-35.7,12.34-55.38c0-20.69-4.67-40.04-13.01-57.39c-8.01-17.02-19.69-31.7-33.36-43.37
				c-23.35-20.02-53.38-32.03-86.41-32.03h-97.08V612.5h94.42c0,0,4.33-0.33,6.34-0.33c31.03,0,56.38-25.02,56.38-56.05
				c0-31.36-25.36-56.38-56.38-56.38h-64.05v-43.37h71.39c31.03,2.34,58.38,18.68,75.07,43.37c11.01,16.01,17.35,35.36,17.35,56.38
				c0,20.68-6.34,40.37-17.35,56.38c-18.02,26.02-47.71,43.04-81.4,43.37H358.3z"/>
		</g>
		<g>
			<path class="st2" d="M536.46,524.75h-98.42v-17.68h63.72C515.77,507.74,528.12,514.41,536.46,524.75z"/>
		</g>
		<g>
			<path class="st2" d="M536.8,586.81c-9.01,11.34-22.69,18.35-38.37,18.35h-60.38v-18.35H536.8z"/>
		</g>
		<g>
			<path class="st2" d="M547.47,560.45c-0.33,6.67-2.33,13.01-5.67,18.35H438.04v-18.35H547.47z"/>
		</g>
		<g>
			<path class="st2" d="M547.47,552.44H438.04v-18.35h104.42C545.47,539.76,547.14,545.77,547.47,552.44z"/>
		</g>
		<g>
			<path class="st2" d="M536.8,586.81c-9.01,11.34-22.69,18.35-38.37,18.35c-15.35,0-29.02-7-38.03-18.35H536.8z"/>
		</g>
		<g>
			<path class="st2" d="M547.47,560.45c-0.33,6.67-2.33,13.01-5.67,18.35h-86.4c-3.34-5.34-5.34-11.68-5.68-18.35H547.47z"/>
		</g>
		<g>
			<path class="st2" d="M536.46,524.75h-75.73c8.34-10.34,20.35-17.02,34.36-17.68h6.67C515.77,507.74,528.12,514.41,536.46,524.75z
				"/>
		</g>
		<g>
			<path class="st2" d="M547.47,552.44h-97.75c0.33-6.67,2-12.68,5.01-18.35h87.74C545.47,539.76,547.14,545.77,547.47,552.44z"/>
		</g>
	</g>
	<g>
		<line class="st1" x1="778.01" y1="351.26" x2="740.31" y2="350.59"/>
	</g>
	<g>
		<line class="st1" x1="717.62" y1="350.26" x2="268.56" y2="343.25"/>
	</g>
	<g>
		<path class="st2" d="M740.3,329.57v54.38l-22.68-0.33c0-18.68,0-30.69,0-30.69H268.56c0,0,0,9.01,0,23.69l-22.69-0.33v-46.71
			H740.3z"/>
	</g>
	<g>
		<g>
			<path class="st2" d="M258.21,165.82v137.12h19.69v-10.34h67.73v10.34h20.35V165.82H258.21z M345.63,273.58H277.9v-35.36h67.73
				V273.58z M345.63,219.2H277.9v-34.36h67.73V219.2z"/>
		</g>
		<g>
			<path class="st2" d="M499.76,206.52h49.04v-19.35h-60.39v-26.36c3.01-0.67,4.34-1.67,4.34-3l-24.35-1.33v30.69h-59.72v19.35
				h48.37c-12.34,24.35-32.36,47.37-54.71,59.38c4.33,4,10.34,11.34,13.68,16.02c9.01-5.67,17.35-12.68,25.02-20.69v17.02h27.36
				v27.02h20.01v-27.02h26.36V259.9c8.01,8.67,16.68,15.68,26.02,21.35c3.34-5.34,10.01-13.01,14.69-17.02
				C532.79,252.23,512.44,230.21,499.76,206.52z M468.4,258.9h-25.02c9.34-10.34,18.02-22.02,25.02-34.7V258.9z M488.41,258.9
				v-35.03c7.35,13.01,15.69,24.69,25.36,35.03H488.41z"/>
		</g>
		<g>
			<path class="st2" d="M647.55,245.55v59.72h18.02v-6.01h33.03v5.01h18.35v-58.72H647.55z M698.6,282.25h-33.03v-19.68h33.03
				V282.25z M713.29,220.53V188.5h-34.03c0.67-4,1.34-7.67,1.66-11.34h40.71v-16.35h-79.74v16.35h20.69
				c-0.67,3.67-1,7.34-1.67,11.34h-16.01v16.02h13.34c-0.67,5.67-1.67,11.01-2.66,16.01h-19.69v16.35h91.41v-16.35H713.29z
				 M695.27,220.53h-21.36c1-5.01,1.67-10.34,2.67-16.01h18.69V220.53z M586.17,161.14v14.35h45.03v-14.35H586.17z M585.17,228.2
				v14.35h46.04V228.2H585.17z M585.17,206.19v14.01h46.04v-14.01H585.17z M584.84,250.56v54.38h16.01v-6.01h31.36v-48.37H584.84z
				 M616.2,283.92h-15.35v-18.35h15.35V283.92z M577.83,183.17v15.01h59.05v-15.01H577.83z"/>
		</g>
	</g>
</g>
</svg>
