<?xml version="1.0" encoding="utf-8"?>
<!-- Generator: Adobe Illustrator 26.0.1, SVG Export Plug-In . SVG Version: 6.00 Build 0)  -->
<svg version="1.1" id="Layer_1" xmlns="http://www.w3.org/2000/svg" xmlns:xlink="http://www.w3.org/1999/xlink" x="0px" y="0px"
	 viewBox="0 0 1000 1000" style="enable-background:new 0 0 1000 1000;" xml:space="preserve">
<style type="text/css">
	.st0{fill:#D32027;}
	.st1{fill:none;}
	.st2{fill:#FFFFFF;}
</style>
<g>
	<g>
		<path class="st0" d="M100.15,322.33c0,0,0.31,214.19,0.31,215.61c3.31,67.31,58.82,120.15,126.29,120.15
			c67.62,0,122.98-52.84,126.28-120.15c0.08-0.81,0.16-58.07,0.22-113.37c0.06-51.99,0.1-102.24,0.1-102.24H100.15z M343.28,440.12
			c0,20.08,0,40.99-0.02,58.27c0,2.05,0,4.05-0.01,5.99c-0.01,5.82-0.01,11.11-0.02,15.67c-0.01,4.19-0.02,7.76-0.04,10.56
			c0,0.51,0,0.99-0.01,1.45c0,0.69-0.01,1.31-0.01,1.88c0,0.88-0.01,1.6-0.02,2.17c0,0.16,0,0.31-0.01,0.45c0,0.2,0,0.38-0.01,0.52
			c0,0.19,0,0.32-0.01,0.39c-2.98,62.12-54.09,110.71-116.37,110.71s-113.39-48.59-116.38-110.71c0-0.54-0.02-6.04-0.04-14.78
			c0-1.55-0.01-3.21-0.01-4.95c0-2.64-0.01-5.49-0.02-8.52c0-1.31,0-2.64-0.01-4.01c-0.01-4.11-0.02-8.49-0.02-13.07
			c0-2.03-0.01-4.11-0.01-6.22c0-2.11-0.01-4.25-0.01-6.42s-0.01-4.36-0.01-6.58c0-4.44,0-8.95-0.01-13.5
			c0-3.16-0.01-6.34-0.01-9.52c-0.01-4.49-0.01-8.97-0.01-13.4v-22.01h233.07V440.12z"/>
	</g>
	<g>
		<path d="M110.21,414.49v8.33c0,4.47,0,9.05,0.01,13.68v13.4c0,3.18,0.01,6.36,0.01,9.52c0.01,4.55,0.01,9.06,0.01,13.5
			c0.01,2.21,0.01,4.41,0.01,6.58c0.01,2.17,0.01,4.31,0.01,6.42c0,2.11,0.01,4.19,0.01,6.22c0.01,4.58,0.02,8.96,0.02,13.07
			c0.01,1.37,0.01,2.7,0.01,4.01c0.01,3.03,0.02,5.88,0.02,8.52c0,1.74,0.01,3.4,0.01,4.95c0.02,8.74,0.04,14.24,0.04,14.78
			c2.99,62.12,54.1,110.71,116.38,110.71s113.39-48.59,116.37-110.71c0.01-0.07,0.01-0.2,0.01-0.39c0.01-0.14,0.01-0.32,0.01-0.52
			c0.01-0.14,0.01-0.29,0.01-0.45c0.01-0.57,0.02-1.29,0.02-2.17c0-0.57,0.01-1.19,0.01-1.88c0.01-0.46,0.01-0.94,0.01-1.45
			c0.02-2.8,0.03-6.37,0.04-10.56c0.01-4.56,0.01-9.85,0.02-15.67c0.01-1.94,0.01-3.94,0.01-5.99c0.02-17.28,0.02-38.19,0.02-58.27
			v-25.63H110.21z M332.59,439.96c0,8.11,0,17.21-0.01,26.48c0.01,8.38,0,16.91-0.01,24.97c0,5.22-0.01,10.25-0.02,14.92
			c-0.01,9.49-0.02,17.49-0.06,22.63c0,0.4,0,0.78-0.01,1.14c0,0.72,0,1.37-0.01,1.95c0,0.46,0,0.87-0.01,1.24
			c0,0.36,0,0.67-0.01,0.93c0,0.52-0.01,0.82-0.02,0.89c-2.67,55.98-48.91,100.65-105.68,100.65
			c-56.62,0-103.01-44.67-105.68-100.65c-0.01-0.06-0.02-0.43-0.03-1.1c-0.02-1.21-0.03-3.36-0.05-6.27v-1.03
			c-0.01-2.59-0.02-5.7-0.03-9.2c0-1.75-0.01-3.61-0.01-5.55c-0.01-1.93-0.01-3.96-0.01-6.05c0-2.65-0.01-5.41-0.01-8.26
			c-0.01-4.98-0.01-10.22-0.01-15.55c-0.01-15.66-0.01-32.15-0.01-45.44c0-6.92,0-11.17,0-11.17h211.68
			C332.59,425.49,332.59,431.16,332.59,439.96z"/>
	</g>
	<g>
		<path class="st0" d="M332.59,439.96c0,8.11,0,17.21-0.01,26.48c0.01,8.38,0,16.91-0.01,24.97c0,5.22-0.01,10.25-0.02,14.92
			c-0.01,9.49-0.02,17.49-0.06,22.63c0,0.4,0,0.78-0.01,1.14c0,0.72,0,1.37-0.01,1.95c0,0.46,0,0.87-0.01,1.24
			c0,0.36,0,0.67-0.01,0.93c0,0.52-0.01,0.82-0.02,0.89c-2.67,55.98-48.91,100.65-105.68,100.65
			c-56.62,0-103.01-44.67-105.68-100.65c-0.01-0.06-0.02-0.43-0.03-1.1c-0.02-1.21-0.03-3.36-0.05-6.27v-1.03
			c-0.01-2.59-0.02-5.7-0.03-9.2c0-1.75-0.01-3.61-0.01-5.55c-0.01-1.93-0.01-3.96-0.01-6.05c0-2.65-0.01-5.41-0.01-8.26
			c-0.01-4.98-0.01-10.22-0.01-15.55c-0.01-15.66-0.01-32.15-0.01-45.44c0-6.92,0-11.17,0-11.17h211.68
			C332.59,425.49,332.59,431.16,332.59,439.96z"/>
	</g>
	<g>
		<path d="M462.33,338.16c5.79,2.98,10.27,7.23,13.42,12.75c3.16,5.51,4.73,11.91,4.73,19.2c0,7.28-1.58,13.65-4.73,19.09
			c-3.16,5.45-7.63,9.66-13.42,12.64c-5.79,2.98-12.5,4.47-20.13,4.47h-25.39v-72.63h25.39
			C449.83,333.68,456.54,335.17,462.33,338.16z M459.37,387.69c4.16-4.16,6.24-10.02,6.24-17.58c0-7.56-2.08-13.48-6.24-17.74
			c-4.16-4.27-10.06-6.4-17.69-6.4h-10.3v47.97h10.3C449.31,393.93,455.2,391.85,459.37,387.69z"/>
		<path d="M513.32,350.43c3.02-1.73,6.47-2.6,10.35-2.6v15.3h-3.85c-4.58,0-8.03,1.08-10.35,3.23c-2.33,2.15-3.49,5.9-3.49,11.24
			v28.72h-14.57v-57.65h14.57v8.95C507.85,354.56,510.3,352.17,513.32,350.43z"/>
		<path d="M586.62,381.86h-42.14c0.35,4.16,1.8,7.42,4.37,9.78c2.56,2.36,5.72,3.54,9.47,3.54c5.41,0,9.26-2.32,11.55-6.97h15.71
			c-1.66,5.55-4.86,10.11-9.57,13.68c-4.72,3.57-10.51,5.36-17.38,5.36c-5.55,0-10.53-1.23-14.93-3.69
			c-4.4-2.46-7.84-5.95-10.3-10.46c-2.46-4.51-3.69-9.71-3.69-15.61c0-5.97,1.21-11.2,3.64-15.71c2.43-4.51,5.83-7.98,10.2-10.41
			c4.37-2.43,9.4-3.64,15.09-3.64c5.48,0,10.39,1.18,14.72,3.54c4.33,2.36,7.7,5.71,10.09,10.04c2.39,4.34,3.59,9.31,3.59,14.93
			C587.04,378.32,586.9,380.19,586.62,381.86z M571.95,372.08c-0.07-3.75-1.42-6.75-4.06-9c-2.64-2.25-5.86-3.38-9.68-3.38
			c-3.61,0-6.64,1.09-9.1,3.28c-2.46,2.18-3.97,5.22-4.53,9.1H571.95z"/>
		<path d="M597.39,361.78c2.32-4.51,5.48-7.98,9.47-10.41c3.99-2.43,8.44-3.64,13.37-3.64c4.3,0,8.06,0.87,11.29,2.6
			c3.23,1.73,5.81,3.92,7.75,6.56v-8.22h14.67v57.65h-14.67v-8.43c-1.87,2.71-4.46,4.94-7.75,6.71c-3.3,1.77-7.09,2.65-11.39,2.65
			c-4.86,0-9.28-1.25-13.27-3.75c-3.99-2.5-7.15-6.02-9.47-10.56c-2.33-4.54-3.49-9.76-3.49-15.66
			C593.91,371.45,595.07,366.29,597.39,361.78z M637.19,368.38c-1.39-2.53-3.26-4.47-5.62-5.83c-2.36-1.35-4.89-2.03-7.6-2.03
			c-2.71,0-5.2,0.66-7.49,1.98c-2.29,1.32-4.15,3.24-5.57,5.78c-1.42,2.53-2.13,5.53-2.13,9c0,3.47,0.71,6.5,2.13,9.1
			s3.29,4.6,5.62,5.98c2.32,1.39,4.8,2.08,7.44,2.08c2.71,0,5.24-0.68,7.6-2.03c2.36-1.35,4.23-3.29,5.62-5.83
			c1.39-2.53,2.08-5.57,2.08-9.1S638.58,370.92,637.19,368.38z"/>
		<path d="M756.91,354.34c4.33,4.34,6.5,10.39,6.5,18.16v33.82h-14.57v-31.84c0-4.51-1.14-7.96-3.43-10.35s-5.41-3.59-9.37-3.59
			s-7.09,1.2-9.42,3.59c-2.33,2.39-3.49,5.84-3.49,10.35v31.84h-14.57v-31.84c0-4.51-1.14-7.96-3.43-10.35s-5.41-3.59-9.37-3.59
			c-4.02,0-7.2,1.2-9.52,3.59c-2.33,2.39-3.49,5.84-3.49,10.35v31.84H668.2v-57.65h14.57v6.97c1.87-2.43,4.28-4.33,7.23-5.72
			c2.95-1.39,6.19-2.08,9.73-2.08c4.51,0,8.53,0.96,12.07,2.86c3.54,1.91,6.28,4.63,8.22,8.17c1.87-3.33,4.59-6,8.17-8.01
			c3.57-2.01,7.44-3.02,11.6-3.02C746.87,347.83,752.57,350,756.91,354.34z"/>
		<path d="M830.42,381.86h-42.14c0.35,4.16,1.8,7.42,4.37,9.78c2.57,2.36,5.72,3.54,9.47,3.54c5.41,0,9.26-2.32,11.55-6.97h15.71
			c-1.67,5.55-4.86,10.11-9.57,13.68c-4.72,3.57-10.51,5.36-17.38,5.36c-5.55,0-10.53-1.23-14.93-3.69
			c-4.41-2.46-7.84-5.95-10.3-10.46c-2.46-4.51-3.69-9.71-3.69-15.61c0-5.97,1.21-11.2,3.64-15.71c2.43-4.51,5.83-7.98,10.2-10.41
			c4.37-2.43,9.4-3.64,15.09-3.64c5.48,0,10.39,1.18,14.72,3.54c4.33,2.36,7.7,5.71,10.09,10.04c2.39,4.34,3.59,9.31,3.59,14.93
			C830.84,378.32,830.7,380.19,830.42,381.86z M815.75,372.08c-0.07-3.75-1.42-6.75-4.06-9c-2.64-2.25-5.86-3.38-9.68-3.38
			c-3.61,0-6.64,1.09-9.1,3.28c-2.46,2.18-3.97,5.22-4.53,9.1H815.75z"/>
		<path d="M863.35,350.43c3.02-1.73,6.47-2.6,10.35-2.6v15.3h-3.85c-4.58,0-8.03,1.08-10.35,3.23c-2.33,2.15-3.49,5.9-3.49,11.24
			v28.72h-14.57v-57.65h14.57v8.95C857.89,354.56,860.33,352.17,863.35,350.43z"/>
		<path d="M478.93,518.33h-14.57l-32.99-49.84v49.84h-14.57V445.6h14.57l32.99,49.95V445.6h14.57V518.33z"/>
		<path d="M494.27,451.37c-1.7-1.63-2.55-3.66-2.55-6.09c0-2.43,0.85-4.46,2.55-6.09c1.7-1.63,3.83-2.45,6.4-2.45
			c2.56,0,4.7,0.82,6.4,2.45c1.7,1.63,2.55,3.66,2.55,6.09c0,2.43-0.85,4.46-2.55,6.09c-1.7,1.63-3.83,2.45-6.4,2.45
			C498.11,453.82,495.97,453,494.27,451.37z M507.85,460.68v57.65h-14.57v-57.65H507.85z"/>
		<path d="M566.33,462.71c3.4,1.91,6.05,4.72,7.96,8.43c1.91,3.71,2.86,8.17,2.86,13.37v33.82h-14.57v-31.84
			c0-4.58-1.14-8.1-3.43-10.56c-2.29-2.46-5.41-3.69-9.37-3.69c-4.02,0-7.2,1.23-9.52,3.69c-2.32,2.46-3.49,5.98-3.49,10.56v31.84
			h-14.57v-77h14.57v26.53c1.87-2.5,4.37-4.46,7.49-5.88c3.12-1.42,6.59-2.13,10.41-2.13C559.05,459.85,562.93,460.81,566.33,462.71
			z"/>
		<path d="M601.61,515.57c-4.44-2.46-7.93-5.95-10.46-10.46c-2.53-4.51-3.8-9.71-3.8-15.61c0-5.9,1.3-11.1,3.9-15.61
			c2.6-4.51,6.16-8,10.67-10.46c4.51-2.46,9.54-3.69,15.09-3.69c5.55,0,10.58,1.23,15.09,3.69c4.51,2.46,8.06,5.95,10.67,10.46
			c2.6,4.51,3.9,9.71,3.9,15.61c0,5.9-1.34,11.1-4.01,15.61c-2.67,4.51-6.28,8-10.82,10.46c-4.54,2.46-9.62,3.69-15.24,3.69
			C611.04,519.27,606.04,518.04,601.61,515.57z M624.03,504.65c2.32-1.28,4.18-3.21,5.57-5.78c1.39-2.57,2.08-5.69,2.08-9.37
			c0-5.48-1.44-9.69-4.32-12.64c-2.88-2.95-6.4-4.42-10.56-4.42s-7.65,1.47-10.46,4.42c-2.81,2.95-4.21,7.16-4.21,12.64
			c0,5.48,1.37,9.7,4.11,12.64c2.74,2.95,6.19,4.42,10.35,4.42C619.23,506.57,621.71,505.93,624.03,504.65z"/>
		<path d="M705.97,466.36c4.23,4.34,6.35,10.39,6.35,18.16v33.82h-14.57v-31.84c0-4.58-1.14-8.1-3.43-10.56
			c-2.29-2.46-5.41-3.69-9.37-3.69c-4.02,0-7.2,1.23-9.52,3.69c-2.33,2.46-3.49,5.98-3.49,10.56v31.84h-14.57v-57.65h14.57v7.18
			c1.94-2.5,4.42-4.46,7.44-5.88c3.02-1.42,6.33-2.13,9.94-2.13C696.19,459.85,701.74,462.02,705.97,466.36z"/>
		<path d="M760.08,462.3c3.26,1.7,5.83,3.9,7.7,6.61v-8.22h14.67v58.06c0,5.34-1.08,10.11-3.23,14.31c-2.15,4.2-5.38,7.53-9.68,9.99
			c-4.3,2.46-9.5,3.69-15.61,3.69c-8.19,0-14.9-1.91-20.13-5.72c-5.24-3.82-8.2-9.02-8.9-15.61h14.46c0.76,2.63,2.41,4.73,4.94,6.29
			s5.6,2.34,9.21,2.34c4.23,0,7.67-1.27,10.3-3.8c2.64-2.53,3.95-6.37,3.95-11.5v-8.95c-1.87,2.71-4.46,4.96-7.75,6.76
			c-3.3,1.8-7.06,2.71-11.29,2.71c-4.86,0-9.3-1.25-13.32-3.75c-4.02-2.5-7.2-6.02-9.52-10.56c-2.33-4.54-3.49-9.76-3.49-15.66
			c0-5.83,1.16-10.99,3.49-15.5c2.32-4.51,5.48-7.98,9.47-10.41c3.99-2.43,8.44-3.64,13.37-3.64
			C753.04,459.75,756.82,460.6,760.08,462.3z M765.7,480.4c-1.39-2.53-3.26-4.47-5.62-5.83c-2.36-1.35-4.89-2.03-7.6-2.03
			c-2.71,0-5.2,0.66-7.49,1.98c-2.29,1.32-4.15,3.24-5.57,5.77c-1.42,2.53-2.13,5.53-2.13,9c0,3.47,0.71,6.5,2.13,9.11
			c1.42,2.6,3.29,4.6,5.62,5.98c2.32,1.39,4.8,2.08,7.44,2.08c2.71,0,5.24-0.68,7.6-2.03c2.36-1.35,4.23-3.29,5.62-5.83
			c1.39-2.53,2.08-5.57,2.08-9.11C767.78,485.97,767.08,482.94,765.7,480.4z"/>
		<path d="M807.32,515.57c-4.44-2.46-7.93-5.95-10.46-10.46c-2.53-4.51-3.8-9.71-3.8-15.61c0-5.9,1.3-11.1,3.9-15.61
			c2.6-4.51,6.16-8,10.67-10.46c4.51-2.46,9.54-3.69,15.09-3.69c5.55,0,10.58,1.23,15.09,3.69c4.51,2.46,8.06,5.95,10.67,10.46
			c2.6,4.51,3.9,9.71,3.9,15.61c0,5.9-1.34,11.1-4.01,15.61c-2.67,4.51-6.28,8-10.82,10.46c-4.54,2.46-9.62,3.69-15.24,3.69
			C816.75,519.27,811.76,518.04,807.32,515.57z M829.74,504.65c2.32-1.28,4.18-3.21,5.57-5.78c1.39-2.57,2.08-5.69,2.08-9.37
			c0-5.48-1.44-9.69-4.32-12.64c-2.88-2.95-6.4-4.42-10.56-4.42s-7.65,1.47-10.46,4.42c-2.81,2.95-4.21,7.16-4.21,12.64
			c0,5.48,1.37,9.7,4.11,12.64c2.74,2.95,6.19,4.42,10.35,4.42C824.94,506.57,827.42,505.93,829.74,504.65z"/>
		<path d="M456.84,617.72h-26.41l-4.37,12.63H412.1l23.84-66.41h15.48l23.85,66.41h-14.06L456.84,617.72z M453.23,607.08l-9.6-27.74
			l-9.59,27.74H453.23z"/>
		<path d="M484.11,589.74c2.22-4.08,5.29-7.25,9.21-9.5c3.93-2.25,8.42-3.37,13.49-3.37c6.52,0,11.92,1.63,16.2,4.89
			c4.28,3.26,7.14,7.84,8.6,13.73h-14.34c-0.76-2.28-2.04-4.07-3.85-5.37c-1.8-1.3-4.04-1.95-6.7-1.95c-3.8,0-6.81,1.38-9.02,4.13
			c-2.22,2.75-3.32,6.67-3.32,11.73c0,5,1.11,8.88,3.32,11.64c2.22,2.75,5.23,4.13,9.02,4.13c5.38,0,8.9-2.41,10.54-7.22h14.34
			c-1.46,5.7-4.34,10.23-8.64,13.58c-4.31,3.36-9.69,5.04-16.15,5.04c-5.07,0-9.56-1.12-13.49-3.37c-3.93-2.25-7-5.42-9.21-9.5
			c-2.22-4.08-3.33-8.85-3.33-14.3C480.78,598.59,481.89,593.82,484.11,589.74z"/>
		<path d="M541.15,589.69c2.12-4.12,5-7.28,8.65-9.5c3.64-2.22,7.71-3.33,12.21-3.33c3.93,0,7.36,0.79,10.31,2.38
			c2.95,1.58,5.3,3.58,7.08,5.99v-7.5h13.4v52.63h-13.4v-7.7c-1.71,2.47-4.07,4.51-7.08,6.13c-3.01,1.62-6.48,2.42-10.4,2.42
			c-4.43,0-8.47-1.14-12.11-3.42c-3.64-2.28-6.52-5.49-8.65-9.64c-2.12-4.15-3.18-8.91-3.18-14.3
			C537.97,598.53,539.03,593.81,541.15,589.69z M577.49,595.72c-1.27-2.31-2.98-4.08-5.13-5.32c-2.15-1.24-4.47-1.85-6.94-1.85
			s-4.75,0.6-6.84,1.8c-2.09,1.2-3.79,2.96-5.08,5.27c-1.3,2.31-1.95,5.05-1.95,8.22c0,3.17,0.65,5.94,1.95,8.31
			c1.3,2.38,3.01,4.2,5.13,5.46c2.12,1.27,4.38,1.9,6.79,1.9c2.47,0,4.78-0.62,6.94-1.85c2.15-1.24,3.86-3.01,5.13-5.32
			c1.27-2.31,1.9-5.08,1.9-8.31C579.39,600.81,578.76,598.04,577.49,595.72z"/>
		<path d="M605.56,589.69c2.12-4.12,5.02-7.28,8.69-9.5c3.67-2.22,7.76-3.33,12.25-3.33c3.42,0,6.68,0.75,9.79,2.23
			c3.1,1.49,5.57,3.47,7.41,5.94v-24.98h13.49v70.3H643.7v-7.79c-1.65,2.6-3.96,4.69-6.93,6.27c-2.98,1.58-6.43,2.38-10.36,2.38
			c-4.43,0-8.49-1.14-12.16-3.42c-3.67-2.28-6.57-5.49-8.69-9.64c-2.12-4.15-3.18-8.91-3.18-14.3
			C602.38,598.53,603.44,593.81,605.56,589.69z M641.9,595.72c-1.27-2.31-2.98-4.08-5.13-5.32c-2.15-1.24-4.47-1.85-6.94-1.85
			s-4.75,0.6-6.84,1.8c-2.09,1.2-3.79,2.96-5.08,5.27c-1.3,2.31-1.95,5.05-1.95,8.22c0,3.17,0.65,5.94,1.95,8.31
			c1.3,2.38,3.01,4.2,5.13,5.46c2.12,1.27,4.38,1.9,6.79,1.9c2.47,0,4.78-0.62,6.94-1.85c2.15-1.24,3.86-3.01,5.13-5.32
			c1.27-2.31,1.9-5.08,1.9-8.31C643.8,600.81,643.17,598.04,641.9,595.72z"/>
		<path d="M718.75,608.03h-38.47c0.32,3.8,1.65,6.78,3.99,8.93c2.34,2.15,5.22,3.23,8.64,3.23c4.94,0,8.46-2.12,10.54-6.37h14.35
			c-1.52,5.07-4.43,9.23-8.74,12.49c-4.31,3.26-9.59,4.89-15.87,4.89c-5.07,0-9.61-1.12-13.63-3.37c-4.02-2.25-7.16-5.43-9.4-9.55
			c-2.25-4.12-3.37-8.87-3.37-14.25c0-5.45,1.11-10.23,3.33-14.34c2.22-4.12,5.32-7.28,9.31-9.5c3.99-2.22,8.58-3.33,13.78-3.33
			c5,0,9.48,1.08,13.44,3.23c3.96,2.15,7.03,5.21,9.21,9.17c2.19,3.96,3.28,8.5,3.28,13.63
			C719.13,604.8,719.01,606.51,718.75,608.03z M705.36,599.1c-0.06-3.42-1.3-6.16-3.71-8.22c-2.41-2.06-5.35-3.09-8.83-3.09
			c-3.29,0-6.07,1-8.31,2.99c-2.25,2-3.63,4.77-4.13,8.31H705.36z"/>
		<path d="M809.81,582.9c3.96,3.96,5.94,9.48,5.94,16.58v30.88h-13.3v-29.07c0-4.12-1.04-7.27-3.13-9.45s-4.94-3.28-8.55-3.28
			s-6.48,1.09-8.6,3.28c-2.12,2.18-3.18,5.34-3.18,9.45v29.07h-13.3v-29.07c0-4.12-1.04-7.27-3.13-9.45s-4.94-3.28-8.55-3.28
			c-3.67,0-6.57,1.09-8.69,3.28c-2.12,2.18-3.18,5.34-3.18,9.45v29.07h-13.3v-52.63h13.3v6.37c1.71-2.22,3.91-3.96,6.6-5.23
			c2.69-1.27,5.65-1.9,8.88-1.9c4.12,0,7.79,0.87,11.02,2.61c3.23,1.74,5.73,4.23,7.5,7.46c1.71-3.04,4.19-5.48,7.46-7.31
			c3.26-1.84,6.79-2.75,10.59-2.75C800.64,576.96,805.85,578.94,809.81,582.9z"/>
		<path d="M878.73,577.72l-32.58,77.52h-14.16l11.4-26.22l-21.09-51.3h14.92l13.58,36.76l13.78-36.76H878.73z"/>
	</g>
	<g>
		<g>
			<path d="M163.21,568.3l-0.16-73.6v-55.99h66.21c20.76,0,39.79,7.71,54.42,20.44c5.03,4.4,9.75,9.44,13.52,15.1
				c2.36,3.3,4.4,6.76,6.29,10.38c5.66,11.17,8.81,23.75,8.81,37.12c0,9.12-1.57,17.93-4.25,26.11
				c-2.36,7.39-5.82,14.15-10.06,20.44c-4.09,5.98-8.97,11.32-14.31,16.04c-14.63,12.74-33.66,20.44-54.42,20.44
				c-0.63,0-1.26,0-1.73-0.16v0.16h-58.19l14.78-13.52l7.71-6.92h35.86v-0.16c0.47,0.16,1.1,0.16,1.57,0.16
				c16.04,0,30.67-6.13,41.84-16.04c6.29-5.66,11.48-12.74,14.94-20.44c3.77-7.86,5.82-16.83,5.82-26.11
				c0-9.75-2.2-18.87-6.13-27.05c-3.77-8.02-9.28-14.94-15.73-20.44c-11.01-9.44-25.16-15.1-40.73-15.1H183.5v88.7h44.51
				c0,0,2.04-0.16,2.99-0.16c14.62,0,26.58-11.79,26.58-26.42c0-14.78-11.95-26.58-26.58-26.58H200.8v-20.44h33.65
				c14.62,1.1,27.52,8.81,35.38,20.44c5.19,7.55,8.18,16.67,8.18,26.58c0,9.75-2.99,19.03-8.18,26.58
				c-8.49,12.27-22.49,20.29-38.37,20.44H163.21z"/>
		</g>
		<g>
			<path d="M247.19,506.49H200.8v-8.33h30.04C237.44,498.47,243.26,501.62,247.19,506.49z"/>
		</g>
		<g>
			<path d="M247.35,535.75c-4.25,5.35-10.7,8.65-18.09,8.65H200.8v-8.65H247.35z"/>
		</g>
		<g>
			<path d="M252.38,523.32c-0.15,3.15-1.1,6.13-2.67,8.65H200.8v-8.65H252.38z"/>
		</g>
		<g>
			<path d="M252.38,519.55H200.8v-8.65h49.22C251.44,513.57,252.23,516.4,252.38,519.55z"/>
		</g>
		<g>
			<path d="M247.35,535.75c-4.25,5.35-10.7,8.65-18.09,8.65c-7.23,0-13.68-3.3-17.93-8.65H247.35z"/>
		</g>
		<g>
			<path d="M252.38,523.32c-0.15,3.15-1.1,6.13-2.67,8.65h-40.73c-1.57-2.52-2.52-5.5-2.68-8.65H252.38z"/>
		</g>
		<g>
			<path d="M247.19,506.49h-35.7c3.93-4.88,9.59-8.02,16.2-8.33h3.14C237.44,498.47,243.26,501.62,247.19,506.49z"/>
		</g>
		<g>
			<path d="M252.38,519.55H206.3c0.16-3.15,0.94-5.98,2.36-8.65h41.36C251.44,513.57,252.23,516.4,252.38,519.55z"/>
		</g>
	</g>
	<g>
		<line class="st1" x1="361.05" y1="424.71" x2="343.28" y2="424.4"/>
	</g>
	<g>
		<path d="M110.22,436.5L110.22,436.5l-0.01-13.68C110.21,427.29,110.21,431.87,110.22,436.5z"/>
	</g>
	<g>
		<g>
			<path d="M116.03,337.3v64.64h9.28v-4.88h31.93v4.88h9.59V337.3H116.03z M157.24,388.1h-31.93v-16.67h31.93V388.1z M157.24,362.46
				h-31.93v-16.2h31.93V362.46z"/>
		</g>
		<g>
			<path d="M229.89,356.49h23.12v-9.12h-28.47v-12.42c1.42-0.31,2.05-0.79,2.05-1.42l-11.48-0.63v14.47h-28.15v9.12h22.8
				c-5.82,11.48-15.25,22.33-25.79,27.99c2.04,1.89,4.87,5.35,6.45,7.55c4.25-2.67,8.18-5.98,11.79-9.75v8.02h12.9v12.74h9.43V390.3
				h12.42v-8.65c3.77,4.09,7.86,7.39,12.27,10.07c1.57-2.52,4.72-6.13,6.92-8.02C245.46,378.03,235.87,367.65,229.89,356.49z
				 M215.11,381.18h-11.79c4.4-4.88,8.49-10.38,11.79-16.36V381.18z M224.54,381.18v-16.51c3.46,6.13,7.39,11.64,11.96,16.51H224.54
				z"/>
		</g>
		<g>
			<path d="M299.56,374.89v28.15h8.49v-2.83h15.57v2.36h8.65v-27.68H299.56z M323.62,392.18h-15.57v-9.28h15.57V392.18z
				 M330.55,363.09v-15.1H314.5c0.31-1.89,0.63-3.62,0.78-5.35h19.19v-7.71h-37.59v7.71h9.75c-0.31,1.73-0.47,3.46-0.79,5.35h-7.55
				v7.55h6.29c-0.31,2.67-0.79,5.19-1.26,7.55h-9.28v7.71h43.09v-7.71H330.55z M322.05,363.09h-10.07c0.47-2.36,0.79-4.88,1.26-7.55
				h8.81V363.09z M270.63,335.1v6.76h21.23v-6.76H270.63z M270.15,366.71v6.76h21.7v-6.76H270.15z M270.15,356.33v6.6h21.7v-6.6
				H270.15z M270,377.25v25.63h7.55v-2.83h14.78v-22.8H270z M284.78,392.97h-7.23v-8.65h7.23V392.97z M266.69,345.48v7.08h27.84
				v-7.08H266.69z"/>
		</g>
	</g>
</g>
</svg>
